<svg xmlns="http://www.w3.org/2000/svg" style="cursor: move;" width="1920" height="927"><g transform="translate(157.32972059880603,41.919367696617144) scale(0.8802590135631505)"><path class="link" style="stroke-width: 0.5px; stroke-opacity: 0.87; stroke: rgb(80, 80, 80);" marker-end="" d="M800,453.5, 940,206.5"></path><path class="link" style="stroke-width: 0.5px; stroke-opacity: 0.87; stroke: rgb(80, 80, 80);" marker-end="" d="M800,453.5, 940,244.5"></path><path class="link" style="stroke-width: 0.5px; stroke-opacity: 0.87; stroke: rgb(80, 80, 80);" marker-end="" d="M800,453.5, 940,282.5"></path><path class="link" style="stroke-width: 0.5px; stroke-opacity: 0.87; stroke: rgb(80, 80, 80);" marker-end="" d="M800,453.5, 940,320.5"></path><path class="link" style="stroke-width: 0.5px; stroke-opacity: 0.87; stroke: rgb(80, 80, 80);" marker-end="" d="M800,453.5, 940,358.5"></path><path class="link" style="stroke-width: 0.5px; stroke-opacity: 0.87; stroke: rgb(80, 80, 80);" marker-end="" d="M800,453.5, 940,396.5"></path><path class="link" style="stroke-width: 0.5px; stroke-opacity: 0.87; stroke: rgb(80, 80, 80);" marker-end="" d="M800,453.5, 940,434.5"></path><path class="link" style="stroke-width: 0.5px; stroke-opacity: 0.87; stroke: rgb(80, 80, 80);" marker-end="" d="M800,453.5, 940,472.5"></path><path class="link" style="stroke-width: 0.5px; stroke-opacity: 0.87; stroke: rgb(80, 80, 80);" marker-end="" d="M800,453.5, 940,510.5"></path><path class="link" style="stroke-width: 0.5px; stroke-opacity: 0.87; stroke: rgb(80, 80, 80);" marker-end="" d="M800,453.5, 940,548.5"></path><path class="link" style="stroke-width: 0.5px; stroke-opacity: 0.87; stroke: rgb(80, 80, 80);" marker-end="" d="M800,453.5, 940,586.5"></path><path class="link" style="stroke-width: 0.5px; stroke-opacity: 0.87; stroke: rgb(80, 80, 80);" marker-end="" d="M940,168.5, 1080,434.5"></path><path class="link" style="stroke-width: 0.5px; stroke-opacity: 0.87; stroke: rgb(80, 80, 80);" marker-end="" d="M940,168.5, 1080,472.5"></path><path class="link" style="stroke-width: 0.5px; stroke-opacity: 0.87; stroke: rgb(80, 80, 80);" marker-end="" d="M940,168.5, 1080,510.5"></path><path class="link" style="stroke-width: 0.5px; stroke-opacity: 0.87; stroke: rgb(80, 80, 80);" marker-end="" d="M940,206.5, 1080,434.5"></path><path class="link" style="stroke-width: 0.5px; stroke-opacity: 0.87; stroke: rgb(80, 80, 80);" marker-end="" d="M940,206.5, 1080,472.5"></path><path class="link" style="stroke-width: 0.5px; stroke-opacity: 0.87; stroke: rgb(80, 80, 80);" marker-end="" d="M940,206.5, 1080,510.5"></path><path class="link" style="stroke-width: 0.5px; stroke-opacity: 0.87; stroke: rgb(80, 80, 80);" marker-end="" d="M940,244.5, 1080,434.5"></path><path class="link" style="stroke-width: 0.5px; stroke-opacity: 0.87; stroke: rgb(80, 80, 80);" marker-end="" d="M940,244.5, 1080,472.5"></path><path class="link" style="stroke-width: 0.5px; stroke-opacity: 0.87; stroke: rgb(80, 80, 80);" marker-end="" d="M940,244.5, 1080,510.5"></path><path class="link" style="stroke-width: 0.5px; stroke-opacity: 0.87; stroke: rgb(80, 80, 80);" marker-end="" d="M940,282.5, 1080,434.5"></path><path class="link" style="stroke-width: 0.5px; stroke-opacity: 0.87; stroke: rgb(80, 80, 80);" marker-end="" d="M940,282.5, 1080,472.5"></path><path class="link" style="stroke-width: 0.5px; stroke-opacity: 0.87; stroke: rgb(80, 80, 80);" marker-end="" d="M940,282.5, 1080,510.5"></path><path class="link" style="stroke-width: 0.5px; stroke-opacity: 0.87; stroke: rgb(80, 80, 80);" marker-end="" d="M940,320.5, 1080,434.5"></path><path class="link" style="stroke-width: 0.5px; stroke-opacity: 0.87; stroke: rgb(80, 80, 80);" marker-end="" d="M940,320.5, 1080,472.5"></path><path class="link" style="stroke-width: 0.5px; stroke-opacity: 0.87; stroke: rgb(80, 80, 80);" marker-end="" d="M940,320.5, 1080,510.5"></path><path class="link" style="stroke-width: 0.5px; stroke-opacity: 0.87; stroke: rgb(80, 80, 80);" marker-end="" d="M940,358.5, 1080,434.5"></path><path class="link" style="stroke-width: 0.5px; stroke-opacity: 0.87; stroke: rgb(80, 80, 80);" marker-end="" d="M940,358.5, 1080,472.5"></path><path class="link" style="stroke-width: 0.5px; stroke-opacity: 0.87; stroke: rgb(80, 80, 80);" marker-end="" d="M940,358.5, 1080,510.5"></path><path class="link" style="stroke-width: 0.5px; stroke-opacity: 0.87; stroke: rgb(80, 80, 80);" marker-end="" d="M940,396.5, 1080,434.5"></path><path class="link" style="stroke-width: 0.5px; stroke-opacity: 0.87; stroke: rgb(80, 80, 80);" marker-end="" d="M940,396.5, 1080,472.5"></path><path class="link" style="stroke-width: 0.5px; stroke-opacity: 0.87; stroke: rgb(80, 80, 80);" marker-end="" d="M940,396.5, 1080,510.5"></path><path class="link" style="stroke-width: 0.5px; stroke-opacity: 0.87; stroke: rgb(80, 80, 80);" marker-end="" d="M940,434.5, 1080,434.5"></path><path class="link" style="stroke-width: 0.5px; stroke-opacity: 0.87; stroke: rgb(80, 80, 80);" marker-end="" d="M940,434.5, 1080,472.5"></path><path class="link" style="stroke-width: 0.5px; stroke-opacity: 0.87; stroke: rgb(80, 80, 80);" marker-end="" d="M940,434.5, 1080,510.5"></path><path class="link" style="stroke-width: 0.5px; stroke-opacity: 0.87; stroke: rgb(80, 80, 80);" marker-end="" d="M940,472.5, 1080,434.5"></path><path class="link" style="stroke-width: 0.5px; stroke-opacity: 0.87; stroke: rgb(80, 80, 80);" marker-end="" d="M940,472.5, 1080,472.5"></path><path class="link" style="stroke-width: 0.5px; stroke-opacity: 0.87; stroke: rgb(80, 80, 80);" marker-end="" d="M940,472.5, 1080,510.5"></path><path class="link" style="stroke-width: 0.5px; stroke-opacity: 0.87; stroke: rgb(80, 80, 80);" marker-end="" d="M940,510.5, 1080,434.5"></path><path class="link" style="stroke-width: 0.5px; stroke-opacity: 0.87; stroke: rgb(80, 80, 80);" marker-end="" d="M940,510.5, 1080,472.5"></path><path class="link" style="stroke-width: 0.5px; stroke-opacity: 0.87; stroke: rgb(80, 80, 80);" marker-end="" d="M940,510.5, 1080,510.5"></path><path class="link" style="stroke-width: 0.5px; stroke-opacity: 0.87; stroke: rgb(80, 80, 80);" marker-end="" d="M940,548.5, 1080,434.5"></path><path class="link" style="stroke-width: 0.5px; stroke-opacity: 0.87; stroke: rgb(80, 80, 80);" marker-end="" d="M940,548.5, 1080,472.5"></path><path class="link" style="stroke-width: 0.5px; stroke-opacity: 0.87; stroke: rgb(80, 80, 80);" marker-end="" d="M940,548.5, 1080,510.5"></path><path class="link" style="stroke-width: 0.5px; stroke-opacity: 0.87; stroke: rgb(80, 80, 80);" marker-end="" d="M940,586.5, 1080,434.5"></path><path class="link" style="stroke-width: 0.5px; stroke-opacity: 0.87; stroke: rgb(80, 80, 80);" marker-end="" d="M940,586.5, 1080,472.5"></path><path class="link" style="stroke-width: 0.5px; stroke-opacity: 0.87; stroke: rgb(80, 80, 80);" marker-end="" d="M940,586.5, 1080,510.5"></path><path class="link" style="stroke-width: 0.5px; stroke-opacity: 0.87; stroke: rgb(80, 80, 80);" marker-end="" d="M1080,396.5, 1220,453.5"></path><path class="link" style="stroke-width: 0.5px; stroke-opacity: 0.87; stroke: rgb(80, 80, 80);" marker-end="" d="M1080,434.5, 1220,453.5"></path><path class="link" style="stroke-width: 0.5px; stroke-opacity: 0.87; stroke: rgb(80, 80, 80);" marker-end="" d="M1080,472.5, 1220,453.5"></path><path class="link" style="stroke-width: 0.5px; stroke-opacity: 0.87; stroke: rgb(80, 80, 80);" marker-end="" d="M1080,510.5, 1220,453.5"></path><path class="link" style="stroke-width: 0.5px; stroke-opacity: 0.87; stroke: rgb(80, 80, 80);" marker-end="" d="M800,453.5, 940,168.5"></path><path class="link" style="stroke-width: 0.5px; stroke-opacity: 0.87; stroke: rgb(80, 80, 80);" marker-end="" d="M940,168.5, 1080,396.5"></path><path class="link" style="stroke-width: 0.5px; stroke-opacity: 0.87; stroke: rgb(80, 80, 80);" marker-end="" d="M940,206.5, 1080,396.5"></path><path class="link" style="stroke-width: 0.5px; stroke-opacity: 0.87; stroke: rgb(80, 80, 80);" marker-end="" d="M940,244.5, 1080,396.5"></path><path class="link" style="stroke-width: 0.5px; stroke-opacity: 0.87; stroke: rgb(80, 80, 80);" marker-end="" d="M940,282.5, 1080,396.5"></path><path class="link" style="stroke-width: 0.5px; stroke-opacity: 0.87; stroke: rgb(80, 80, 80);" marker-end="" d="M940,320.5, 1080,396.5"></path><path class="link" style="stroke-width: 0.5px; stroke-opacity: 0.87; stroke: rgb(80, 80, 80);" marker-end="" d="M940,358.5, 1080,396.5"></path><path class="link" style="stroke-width: 0.5px; stroke-opacity: 0.87; stroke: rgb(80, 80, 80);" marker-end="" d="M940,396.5, 1080,396.5"></path><path class="link" style="stroke-width: 0.5px; stroke-opacity: 0.87; stroke: rgb(80, 80, 80);" marker-end="" d="M940,434.5, 1080,396.5"></path><path class="link" style="stroke-width: 0.5px; stroke-opacity: 0.87; stroke: rgb(80, 80, 80);" marker-end="" d="M940,472.5, 1080,396.5"></path><path class="link" style="stroke-width: 0.5px; stroke-opacity: 0.87; stroke: rgb(80, 80, 80);" marker-end="" d="M940,510.5, 1080,396.5"></path><path class="link" style="stroke-width: 0.5px; stroke-opacity: 0.87; stroke: rgb(80, 80, 80);" marker-end="" d="M940,548.5, 1080,396.5"></path><path class="link" style="stroke-width: 0.5px; stroke-opacity: 0.87; stroke: rgb(80, 80, 80);" marker-end="" d="M940,586.5, 1080,396.5"></path><path class="link" style="stroke-width: 0.5px; stroke-opacity: 0.87; stroke: rgb(80, 80, 80);" marker-end="" d="M800,453.5, 940,624.5"></path><path class="link" style="stroke-width: 0.5px; stroke-opacity: 0.87; stroke: rgb(80, 80, 80);" marker-end="" d="M800,453.5, 940,662.5"></path><path class="link" style="stroke-width: 0.5px; stroke-opacity: 0.87; stroke: rgb(80, 80, 80);" marker-end="" d="M800,453.5, 940,700.5"></path><path class="link" style="stroke-width: 0.5px; stroke-opacity: 0.87; stroke: rgb(80, 80, 80);" marker-end="" d="M800,453.5, 940,738.5"></path><path class="link" style="stroke-width: 0.5px; stroke-opacity: 0.87; stroke: rgb(80, 80, 80);" marker-end="" d="M940,624.5, 1080,396.5"></path><path class="link" style="stroke-width: 0.5px; stroke-opacity: 0.87; stroke: rgb(80, 80, 80);" marker-end="" d="M940,624.5, 1080,434.5"></path><path class="link" style="stroke-width: 0.5px; stroke-opacity: 0.87; stroke: rgb(80, 80, 80);" marker-end="" d="M940,624.5, 1080,472.5"></path><path class="link" style="stroke-width: 0.5px; stroke-opacity: 0.87; stroke: rgb(80, 80, 80);" marker-end="" d="M940,624.5, 1080,510.5"></path><path class="link" style="stroke-width: 0.5px; stroke-opacity: 0.87; stroke: rgb(80, 80, 80);" marker-end="" d="M940,662.5, 1080,396.5"></path><path class="link" style="stroke-width: 0.5px; stroke-opacity: 0.87; stroke: rgb(80, 80, 80);" marker-end="" d="M940,662.5, 1080,434.5"></path><path class="link" style="stroke-width: 0.5px; stroke-opacity: 0.87; stroke: rgb(80, 80, 80);" marker-end="" d="M940,662.5, 1080,472.5"></path><path class="link" style="stroke-width: 0.5px; stroke-opacity: 0.87; stroke: rgb(80, 80, 80);" marker-end="" d="M940,662.5, 1080,510.5"></path><path class="link" style="stroke-width: 0.5px; stroke-opacity: 0.87; stroke: rgb(80, 80, 80);" marker-end="" d="M940,700.5, 1080,396.5"></path><path class="link" style="stroke-width: 0.5px; stroke-opacity: 0.87; stroke: rgb(80, 80, 80);" marker-end="" d="M940,700.5, 1080,434.5"></path><path class="link" style="stroke-width: 0.5px; stroke-opacity: 0.87; stroke: rgb(80, 80, 80);" marker-end="" d="M940,700.5, 1080,472.5"></path><path class="link" style="stroke-width: 0.5px; stroke-opacity: 0.87; stroke: rgb(80, 80, 80);" marker-end="" d="M940,700.5, 1080,510.5"></path><path class="link" style="stroke-width: 0.5px; stroke-opacity: 0.87; stroke: rgb(80, 80, 80);" marker-end="" d="M940,738.5, 1080,396.5"></path><path class="link" style="stroke-width: 0.5px; stroke-opacity: 0.87; stroke: rgb(80, 80, 80);" marker-end="" d="M940,738.5, 1080,434.5"></path><path class="link" style="stroke-width: 0.5px; stroke-opacity: 0.87; stroke: rgb(80, 80, 80);" marker-end="" d="M940,738.5, 1080,472.5"></path><path class="link" style="stroke-width: 0.5px; stroke-opacity: 0.87; stroke: rgb(80, 80, 80);" marker-end="" d="M940,738.5, 1080,510.5"></path><circle r="10" class="node" id="0_0" style="fill: rgb(255, 255, 255); stroke: rgb(51, 51, 51);" cx="800" cy="453.5"></circle><circle r="10" class="node" id="1_0" style="fill: rgb(255, 255, 255); stroke: rgb(51, 51, 51);" cx="940" cy="168.5"></circle><circle r="10" class="node" id="1_1" style="fill: rgb(255, 255, 255); stroke: rgb(51, 51, 51);" cx="940" cy="206.5"></circle><circle r="10" class="node" id="1_2" style="fill: rgb(255, 255, 255); stroke: rgb(51, 51, 51);" cx="940" cy="244.5"></circle><circle r="10" class="node" id="1_3" style="fill: rgb(255, 255, 255); stroke: rgb(51, 51, 51);" cx="940" cy="282.5"></circle><circle r="10" class="node" id="1_4" style="fill: rgb(255, 255, 255); stroke: rgb(51, 51, 51);" cx="940" cy="320.5"></circle><circle r="10" class="node" id="1_5" style="fill: rgb(255, 255, 255); stroke: rgb(51, 51, 51);" cx="940" cy="358.5"></circle><circle r="10" class="node" id="1_6" style="fill: rgb(255, 255, 255); stroke: rgb(51, 51, 51);" cx="940" cy="396.5"></circle><circle r="10" class="node" id="1_7" style="fill: rgb(255, 255, 255); stroke: rgb(51, 51, 51);" cx="940" cy="434.5"></circle><circle r="10" class="node" id="1_8" style="fill: rgb(255, 255, 255); stroke: rgb(51, 51, 51);" cx="940" cy="472.5"></circle><circle r="10" class="node" id="1_9" style="fill: rgb(255, 255, 255); stroke: rgb(51, 51, 51);" cx="940" cy="510.5"></circle><circle r="10" class="node" id="1_10" style="fill: rgb(255, 255, 255); stroke: rgb(51, 51, 51);" cx="940" cy="548.5"></circle><circle r="10" class="node" id="1_11" style="fill: rgb(255, 255, 255); stroke: rgb(51, 51, 51);" cx="940" cy="586.5"></circle><circle r="10" class="node" id="1_12" style="fill: rgb(255, 255, 255); stroke: rgb(51, 51, 51);" cx="940" cy="624.5"></circle><circle r="10" class="node" id="1_13" style="fill: rgb(255, 255, 255); stroke: rgb(51, 51, 51);" cx="940" cy="662.5"></circle><circle r="10" class="node" id="1_14" style="fill: rgb(255, 255, 255); stroke: rgb(51, 51, 51);" cx="940" cy="700.5"></circle><circle r="10" class="node" id="1_15" style="fill: rgb(255, 255, 255); stroke: rgb(51, 51, 51);" cx="940" cy="738.5"></circle><circle r="10" class="node" id="2_0" style="fill: rgb(255, 255, 255); stroke: rgb(51, 51, 51);" cx="1080" cy="396.5"></circle><circle r="10" class="node" id="2_1" style="fill: rgb(255, 255, 255); stroke: rgb(51, 51, 51);" cx="1080" cy="434.5"></circle><circle r="10" class="node" id="2_2" style="fill: rgb(255, 255, 255); stroke: rgb(51, 51, 51);" cx="1080" cy="472.5"></circle><circle r="10" class="node" id="2_3" style="fill: rgb(255, 255, 255); stroke: rgb(51, 51, 51);" cx="1080" cy="510.5"></circle><circle r="10" class="node" id="3_0" style="fill: rgb(255, 255, 255); stroke: rgb(51, 51, 51);" cx="1220" cy="453.5"></circle><text class="text" dy=".35em" style="font-size: 12px;" x="765" y="778.5"></text><text class="text" dy=".35em" style="font-size: 12px;" x="905" y="778.5"></text><text class="text" dy=".35em" style="font-size: 12px;" x="1045" y="778.5"></text><text class="text" dy=".35em" style="font-size: 12px;" x="1185" y="778.5"></text></g><defs><marker id="arrow" viewBox="0 -5 10 10" markerWidth="7" markerHeight="7" orient="auto" refX="40"><path d="M0,-5L10,0L0,5" style="stroke: rgb(80, 80, 80); fill: none;"></path></marker></defs></svg>