<?xml version="1.0" encoding="utf-8" standalone="no"?>
<!DOCTYPE svg PUBLIC "-//W3C//DTD SVG 1.1//EN"
  "http://www.w3.org/Graphics/SVG/1.1/DTD/svg11.dtd">
<svg xmlns:xlink="http://www.w3.org/1999/xlink" width="432pt" height="288pt" viewBox="0 0 432 288" xmlns="http://www.w3.org/2000/svg" version="1.1">
 <metadata>
  <rdf:RDF xmlns:dc="http://purl.org/dc/elements/1.1/" xmlns:cc="http://creativecommons.org/ns#" xmlns:rdf="http://www.w3.org/1999/02/22-rdf-syntax-ns#">
   <cc:Work>
    <dc:type rdf:resource="http://purl.org/dc/dcmitype/StillImage"/>
    <dc:date>2022-09-14T17:24:50.021864</dc:date>
    <dc:format>image/svg+xml</dc:format>
    <dc:creator>
     <cc:Agent>
      <dc:title>Matplotlib v3.5.1, https://matplotlib.org/</dc:title>
     </cc:Agent>
    </dc:creator>
   </cc:Work>
  </rdf:RDF>
 </metadata>
 <defs>
  <style type="text/css">*{stroke-linejoin: round; stroke-linecap: butt}</style>
 </defs>
 <g id="figure_1">
  <g id="patch_1">
   <path d="M 0 288 
L 432 288 
L 432 0 
L 0 0 
z
" style="fill: #ffffff"/>
  </g>
  <g id="axes_1">
   <g id="patch_2">
    <path d="M 54 256.32 
L 388.8 256.32 
L 388.8 34.56 
L 54 34.56 
z
" style="fill: #ffffff"/>
   </g>
   <g id="matplotlib.axis_1">
    <g id="xtick_1">
     <g id="text_1">
      <!-- street -->
      <g style="fill: #262626" transform="translate(125.196094 270.477813)scale(0.1 -0.1)">
       <defs>
        <path id="ArialMT-73" d="M 197 991 
L 753 1078 
Q 800 744 1014 566 
Q 1228 388 1613 388 
Q 2000 388 2187 545 
Q 2375 703 2375 916 
Q 2375 1106 2209 1216 
Q 2094 1291 1634 1406 
Q 1016 1563 777 1677 
Q 538 1791 414 1992 
Q 291 2194 291 2438 
Q 291 2659 392 2848 
Q 494 3038 669 3163 
Q 800 3259 1026 3326 
Q 1253 3394 1513 3394 
Q 1903 3394 2198 3281 
Q 2494 3169 2634 2976 
Q 2775 2784 2828 2463 
L 2278 2388 
Q 2241 2644 2061 2787 
Q 1881 2931 1553 2931 
Q 1166 2931 1000 2803 
Q 834 2675 834 2503 
Q 834 2394 903 2306 
Q 972 2216 1119 2156 
Q 1203 2125 1616 2013 
Q 2213 1853 2448 1751 
Q 2684 1650 2818 1456 
Q 2953 1263 2953 975 
Q 2953 694 2789 445 
Q 2625 197 2315 61 
Q 2006 -75 1616 -75 
Q 969 -75 630 194 
Q 291 463 197 991 
z
" transform="scale(0.015625)"/>
        <path id="ArialMT-74" d="M 1650 503 
L 1731 6 
Q 1494 -44 1306 -44 
Q 1000 -44 831 53 
Q 663 150 594 308 
Q 525 466 525 972 
L 525 2881 
L 113 2881 
L 113 3319 
L 525 3319 
L 525 4141 
L 1084 4478 
L 1084 3319 
L 1650 3319 
L 1650 2881 
L 1084 2881 
L 1084 941 
Q 1084 700 1114 631 
Q 1144 563 1211 522 
Q 1278 481 1403 481 
Q 1497 481 1650 503 
z
" transform="scale(0.015625)"/>
        <path id="ArialMT-72" d="M 416 0 
L 416 3319 
L 922 3319 
L 922 2816 
Q 1116 3169 1280 3281 
Q 1444 3394 1641 3394 
Q 1925 3394 2219 3213 
L 2025 2691 
Q 1819 2813 1613 2813 
Q 1428 2813 1281 2702 
Q 1134 2591 1072 2394 
Q 978 2094 978 1738 
L 978 0 
L 416 0 
z
" transform="scale(0.015625)"/>
        <path id="ArialMT-65" d="M 2694 1069 
L 3275 997 
Q 3138 488 2766 206 
Q 2394 -75 1816 -75 
Q 1088 -75 661 373 
Q 234 822 234 1631 
Q 234 2469 665 2931 
Q 1097 3394 1784 3394 
Q 2450 3394 2872 2941 
Q 3294 2488 3294 1666 
Q 3294 1616 3291 1516 
L 816 1516 
Q 847 969 1125 678 
Q 1403 388 1819 388 
Q 2128 388 2347 550 
Q 2566 713 2694 1069 
z
M 847 1978 
L 2700 1978 
Q 2663 2397 2488 2606 
Q 2219 2931 1791 2931 
Q 1403 2931 1139 2672 
Q 875 2413 847 1978 
z
" transform="scale(0.015625)"/>
       </defs>
       <use xlink:href="#ArialMT-73"/>
       <use xlink:href="#ArialMT-74" x="50"/>
       <use xlink:href="#ArialMT-72" x="77.783203"/>
       <use xlink:href="#ArialMT-65" x="111.083984"/>
       <use xlink:href="#ArialMT-65" x="166.699219"/>
       <use xlink:href="#ArialMT-74" x="222.314453"/>
      </g>
     </g>
    </g>
    <g id="xtick_2">
     <g id="text_2">
      <!-- river -->
      <g style="fill: #262626" transform="translate(295.378906 270.477813)scale(0.1 -0.1)">
       <defs>
        <path id="ArialMT-69" d="M 425 3934 
L 425 4581 
L 988 4581 
L 988 3934 
L 425 3934 
z
M 425 0 
L 425 3319 
L 988 3319 
L 988 0 
L 425 0 
z
" transform="scale(0.015625)"/>
        <path id="ArialMT-76" d="M 1344 0 
L 81 3319 
L 675 3319 
L 1388 1331 
Q 1503 1009 1600 663 
Q 1675 925 1809 1294 
L 2547 3319 
L 3125 3319 
L 1869 0 
L 1344 0 
z
" transform="scale(0.015625)"/>
       </defs>
       <use xlink:href="#ArialMT-72"/>
       <use xlink:href="#ArialMT-69" x="33.300781"/>
       <use xlink:href="#ArialMT-76" x="55.517578"/>
       <use xlink:href="#ArialMT-65" x="105.517578"/>
       <use xlink:href="#ArialMT-72" x="161.132812"/>
      </g>
     </g>
    </g>
   </g>
   <g id="matplotlib.axis_2">
    <g id="ytick_1">
     <g id="line2d_1">
      <path d="M 54 180.324471 
L 388.8 180.324471 
" clip-path="url(#p0828687010)" style="fill: none; stroke: #cccccc; stroke-width: 0.8; stroke-linecap: round"/>
     </g>
     <g id="text_3">
      <!-- $\mathdefault{10^{0}}$ -->
      <g style="fill: #262626" transform="translate(31.3 185.480721)scale(0.1 -0.1)">
       <defs>
        <path id="ArialMT-31" d="M 2384 0 
L 1822 0 
L 1822 3584 
Q 1619 3391 1289 3197 
Q 959 3003 697 2906 
L 697 3450 
Q 1169 3672 1522 3987 
Q 1875 4303 2022 4600 
L 2384 4600 
L 2384 0 
z
" transform="scale(0.015625)"/>
        <path id="ArialMT-30" d="M 266 2259 
Q 266 3072 433 3567 
Q 600 4063 929 4331 
Q 1259 4600 1759 4600 
Q 2128 4600 2406 4451 
Q 2684 4303 2865 4023 
Q 3047 3744 3150 3342 
Q 3253 2941 3253 2259 
Q 3253 1453 3087 958 
Q 2922 463 2592 192 
Q 2263 -78 1759 -78 
Q 1097 -78 719 397 
Q 266 969 266 2259 
z
M 844 2259 
Q 844 1131 1108 757 
Q 1372 384 1759 384 
Q 2147 384 2411 759 
Q 2675 1134 2675 2259 
Q 2675 3391 2411 3762 
Q 2147 4134 1753 4134 
Q 1366 4134 1134 3806 
Q 844 3388 844 2259 
z
" transform="scale(0.015625)"/>
       </defs>
       <use xlink:href="#ArialMT-31" transform="translate(0 0.99375)"/>
       <use xlink:href="#ArialMT-30" transform="translate(55.615234 0.99375)"/>
       <use xlink:href="#ArialMT-30" transform="translate(112.972813 70.6875)scale(0.7)"/>
      </g>
     </g>
    </g>
    <g id="ytick_2">
     <g id="line2d_2">
      <path d="M 54 87.004563 
L 388.8 87.004563 
" clip-path="url(#p0828687010)" style="fill: none; stroke: #cccccc; stroke-width: 0.8; stroke-linecap: round"/>
     </g>
     <g id="text_4">
      <!-- $\mathdefault{10^{1}}$ -->
      <g style="fill: #262626" transform="translate(31.3 92.160813)scale(0.1 -0.1)">
       <use xlink:href="#ArialMT-31" transform="translate(0 0.99375)"/>
       <use xlink:href="#ArialMT-30" transform="translate(55.615234 0.99375)"/>
       <use xlink:href="#ArialMT-31" transform="translate(112.972813 70.6875)scale(0.7)"/>
      </g>
     </g>
    </g>
    <g id="ytick_3"/>
    <g id="ytick_4"/>
    <g id="ytick_5"/>
    <g id="ytick_6"/>
    <g id="ytick_7"/>
    <g id="ytick_8"/>
    <g id="ytick_9"/>
    <g id="ytick_10"/>
    <g id="ytick_11"/>
    <g id="ytick_12"/>
    <g id="ytick_13"/>
    <g id="ytick_14"/>
    <g id="ytick_15"/>
    <g id="ytick_16"/>
    <g id="ytick_17"/>
    <g id="ytick_18"/>
    <g id="ytick_19"/>
    <g id="ytick_20"/>
    <g id="text_5">
     <!-- Fixation distance [fields/ms] -->
     <g style="fill: #262626" transform="translate(25.3125 206.850156)rotate(-90)scale(0.1 -0.1)">
      <defs>
       <path id="ArialMT-46" d="M 525 0 
L 525 4581 
L 3616 4581 
L 3616 4041 
L 1131 4041 
L 1131 2622 
L 3281 2622 
L 3281 2081 
L 1131 2081 
L 1131 0 
L 525 0 
z
" transform="scale(0.015625)"/>
       <path id="ArialMT-78" d="M 47 0 
L 1259 1725 
L 138 3319 
L 841 3319 
L 1350 2541 
Q 1494 2319 1581 2169 
Q 1719 2375 1834 2534 
L 2394 3319 
L 3066 3319 
L 1919 1756 
L 3153 0 
L 2463 0 
L 1781 1031 
L 1600 1309 
L 728 0 
L 47 0 
z
" transform="scale(0.015625)"/>
       <path id="ArialMT-61" d="M 2588 409 
Q 2275 144 1986 34 
Q 1697 -75 1366 -75 
Q 819 -75 525 192 
Q 231 459 231 875 
Q 231 1119 342 1320 
Q 453 1522 633 1644 
Q 813 1766 1038 1828 
Q 1203 1872 1538 1913 
Q 2219 1994 2541 2106 
Q 2544 2222 2544 2253 
Q 2544 2597 2384 2738 
Q 2169 2928 1744 2928 
Q 1347 2928 1158 2789 
Q 969 2650 878 2297 
L 328 2372 
Q 403 2725 575 2942 
Q 747 3159 1072 3276 
Q 1397 3394 1825 3394 
Q 2250 3394 2515 3294 
Q 2781 3194 2906 3042 
Q 3031 2891 3081 2659 
Q 3109 2516 3109 2141 
L 3109 1391 
Q 3109 606 3145 398 
Q 3181 191 3288 0 
L 2700 0 
Q 2613 175 2588 409 
z
M 2541 1666 
Q 2234 1541 1622 1453 
Q 1275 1403 1131 1340 
Q 988 1278 909 1158 
Q 831 1038 831 891 
Q 831 666 1001 516 
Q 1172 366 1500 366 
Q 1825 366 2078 508 
Q 2331 650 2450 897 
Q 2541 1088 2541 1459 
L 2541 1666 
z
" transform="scale(0.015625)"/>
       <path id="ArialMT-6f" d="M 213 1659 
Q 213 2581 725 3025 
Q 1153 3394 1769 3394 
Q 2453 3394 2887 2945 
Q 3322 2497 3322 1706 
Q 3322 1066 3130 698 
Q 2938 331 2570 128 
Q 2203 -75 1769 -75 
Q 1072 -75 642 372 
Q 213 819 213 1659 
z
M 791 1659 
Q 791 1022 1069 705 
Q 1347 388 1769 388 
Q 2188 388 2466 706 
Q 2744 1025 2744 1678 
Q 2744 2294 2464 2611 
Q 2184 2928 1769 2928 
Q 1347 2928 1069 2612 
Q 791 2297 791 1659 
z
" transform="scale(0.015625)"/>
       <path id="ArialMT-6e" d="M 422 0 
L 422 3319 
L 928 3319 
L 928 2847 
Q 1294 3394 1984 3394 
Q 2284 3394 2536 3286 
Q 2788 3178 2913 3003 
Q 3038 2828 3088 2588 
Q 3119 2431 3119 2041 
L 3119 0 
L 2556 0 
L 2556 2019 
Q 2556 2363 2490 2533 
Q 2425 2703 2258 2804 
Q 2091 2906 1866 2906 
Q 1506 2906 1245 2678 
Q 984 2450 984 1813 
L 984 0 
L 422 0 
z
" transform="scale(0.015625)"/>
       <path id="ArialMT-20" transform="scale(0.015625)"/>
       <path id="ArialMT-64" d="M 2575 0 
L 2575 419 
Q 2259 -75 1647 -75 
Q 1250 -75 917 144 
Q 584 363 401 755 
Q 219 1147 219 1656 
Q 219 2153 384 2558 
Q 550 2963 881 3178 
Q 1213 3394 1622 3394 
Q 1922 3394 2156 3267 
Q 2391 3141 2538 2938 
L 2538 4581 
L 3097 4581 
L 3097 0 
L 2575 0 
z
M 797 1656 
Q 797 1019 1065 703 
Q 1334 388 1700 388 
Q 2069 388 2326 689 
Q 2584 991 2584 1609 
Q 2584 2291 2321 2609 
Q 2059 2928 1675 2928 
Q 1300 2928 1048 2622 
Q 797 2316 797 1656 
z
" transform="scale(0.015625)"/>
       <path id="ArialMT-63" d="M 2588 1216 
L 3141 1144 
Q 3050 572 2676 248 
Q 2303 -75 1759 -75 
Q 1078 -75 664 370 
Q 250 816 250 1647 
Q 250 2184 428 2587 
Q 606 2991 970 3192 
Q 1334 3394 1763 3394 
Q 2303 3394 2647 3120 
Q 2991 2847 3088 2344 
L 2541 2259 
Q 2463 2594 2264 2762 
Q 2066 2931 1784 2931 
Q 1359 2931 1093 2626 
Q 828 2322 828 1663 
Q 828 994 1084 691 
Q 1341 388 1753 388 
Q 2084 388 2306 591 
Q 2528 794 2588 1216 
z
" transform="scale(0.015625)"/>
       <path id="ArialMT-5b" d="M 434 -1272 
L 434 4581 
L 1675 4581 
L 1675 4116 
L 997 4116 
L 997 -806 
L 1675 -806 
L 1675 -1272 
L 434 -1272 
z
" transform="scale(0.015625)"/>
       <path id="ArialMT-66" d="M 556 0 
L 556 2881 
L 59 2881 
L 59 3319 
L 556 3319 
L 556 3672 
Q 556 4006 616 4169 
Q 697 4388 901 4523 
Q 1106 4659 1475 4659 
Q 1713 4659 2000 4603 
L 1916 4113 
Q 1741 4144 1584 4144 
Q 1328 4144 1222 4034 
Q 1116 3925 1116 3625 
L 1116 3319 
L 1763 3319 
L 1763 2881 
L 1116 2881 
L 1116 0 
L 556 0 
z
" transform="scale(0.015625)"/>
       <path id="ArialMT-6c" d="M 409 0 
L 409 4581 
L 972 4581 
L 972 0 
L 409 0 
z
" transform="scale(0.015625)"/>
       <path id="ArialMT-2f" d="M 0 -78 
L 1328 4659 
L 1778 4659 
L 453 -78 
L 0 -78 
z
" transform="scale(0.015625)"/>
       <path id="ArialMT-6d" d="M 422 0 
L 422 3319 
L 925 3319 
L 925 2853 
Q 1081 3097 1340 3245 
Q 1600 3394 1931 3394 
Q 2300 3394 2536 3241 
Q 2772 3088 2869 2813 
Q 3263 3394 3894 3394 
Q 4388 3394 4653 3120 
Q 4919 2847 4919 2278 
L 4919 0 
L 4359 0 
L 4359 2091 
Q 4359 2428 4304 2576 
Q 4250 2725 4106 2815 
Q 3963 2906 3769 2906 
Q 3419 2906 3187 2673 
Q 2956 2441 2956 1928 
L 2956 0 
L 2394 0 
L 2394 2156 
Q 2394 2531 2256 2718 
Q 2119 2906 1806 2906 
Q 1569 2906 1367 2781 
Q 1166 2656 1075 2415 
Q 984 2175 984 1722 
L 984 0 
L 422 0 
z
" transform="scale(0.015625)"/>
       <path id="ArialMT-5d" d="M 1363 -1272 
L 122 -1272 
L 122 -806 
L 800 -806 
L 800 4116 
L 122 4116 
L 122 4581 
L 1363 4581 
L 1363 -1272 
z
" transform="scale(0.015625)"/>
      </defs>
      <use xlink:href="#ArialMT-46"/>
      <use xlink:href="#ArialMT-69" x="61.083984"/>
      <use xlink:href="#ArialMT-78" x="83.300781"/>
      <use xlink:href="#ArialMT-61" x="133.300781"/>
      <use xlink:href="#ArialMT-74" x="188.916016"/>
      <use xlink:href="#ArialMT-69" x="216.699219"/>
      <use xlink:href="#ArialMT-6f" x="238.916016"/>
      <use xlink:href="#ArialMT-6e" x="294.53125"/>
      <use xlink:href="#ArialMT-20" x="350.146484"/>
      <use xlink:href="#ArialMT-64" x="377.929688"/>
      <use xlink:href="#ArialMT-69" x="433.544922"/>
      <use xlink:href="#ArialMT-73" x="455.761719"/>
      <use xlink:href="#ArialMT-74" x="505.761719"/>
      <use xlink:href="#ArialMT-61" x="533.544922"/>
      <use xlink:href="#ArialMT-6e" x="589.160156"/>
      <use xlink:href="#ArialMT-63" x="644.775391"/>
      <use xlink:href="#ArialMT-65" x="694.775391"/>
      <use xlink:href="#ArialMT-20" x="750.390625"/>
      <use xlink:href="#ArialMT-5b" x="778.173828"/>
      <use xlink:href="#ArialMT-66" x="805.957031"/>
      <use xlink:href="#ArialMT-69" x="833.740234"/>
      <use xlink:href="#ArialMT-65" x="855.957031"/>
      <use xlink:href="#ArialMT-6c" x="911.572266"/>
      <use xlink:href="#ArialMT-64" x="933.789062"/>
      <use xlink:href="#ArialMT-73" x="989.404297"/>
      <use xlink:href="#ArialMT-2f" x="1039.404297"/>
      <use xlink:href="#ArialMT-6d" x="1067.1875"/>
      <use xlink:href="#ArialMT-73" x="1150.488281"/>
      <use xlink:href="#ArialMT-5d" x="1200.488281"/>
     </g>
    </g>
   </g>
   <g id="PolyCollection_1">
    <path d="M 138.701612 93500.23293 
L 136.698388 93500.23293 
L 132.80509 93500.23293 
L 125.711257 93500.23293 
L 118.233837 246.24 
L 109.087484 215.655654 
L 96.188346 198.425015 
L 81.858252 186.372647 
L 76.892398 177.094973 
L 81.869832 169.550506 
L 82.038715 163.192487 
L 74.956211 157.697968 
L 70.74 152.860202 
L 78.778555 148.538816 
L 89.115329 144.634129 
L 91.935908 141.072799 
L 91.616033 137.799291 
L 96.802478 134.770541 
L 107.737146 131.95248 
L 115.834333 129.317694 
L 118.565708 126.843792 
L 118.532709 124.512251 
L 121.29318 122.307576 
L 126.312008 120.216669 
L 129.277072 118.228363 
L 129.281572 116.333058 
L 129.114854 114.522441 
L 130.434312 112.789266 
L 131.596123 111.127181 
L 131.837562 109.530581 
L 132.17207 107.994502 
L 133.352708 106.514523 
L 133.918026 105.08669 
L 133.625945 103.707453 
L 134.094107 102.373613 
L 135.133684 101.082276 
L 135.990521 99.830817 
L 136.363579 98.616846 
L 136.372911 97.438184 
L 136.271403 96.292833 
L 136.26754 95.178963 
L 136.265159 94.094889 
L 136.221455 93.039059 
L 136.40666 92.010038 
L 136.831026 91.006498 
L 137.227128 90.027208 
L 137.414872 89.071024 
L 137.36451 88.136879 
L 137.223111 87.223782 
L 137.272349 86.330805 
L 137.427031 85.457079 
L 137.506506 84.601793 
L 137.507542 83.764183 
L 137.514262 82.943535 
L 137.545743 82.139175 
L 137.531484 81.350468 
L 137.461664 80.576818 
L 137.420183 79.81766 
L 137.512045 79.072461 
L 137.609448 78.340717 
L 137.591047 77.62195 
L 137.510993 76.915709 
L 137.495011 76.221565 
L 137.575969 75.539109 
L 137.64604 74.867956 
L 137.669366 74.207736 
L 137.665963 73.558099 
L 137.670785 72.918711 
L 137.668354 72.289253 
L 137.620039 71.669423 
L 137.571904 71.05893 
L 137.59541 70.457496 
L 137.656803 69.864857 
L 137.688334 69.28076 
L 137.680216 68.704961 
L 137.655437 68.137228 
L 137.657249 67.577339 
L 137.682714 67.025078 
L 137.693664 66.480243 
L 137.687872 65.942634 
L 137.683857 65.412064 
L 137.690896 64.88835 
L 137.695241 64.371317 
L 137.685353 63.860797 
L 137.669061 63.356628 
L 137.673003 62.858654 
L 137.690385 62.366725 
L 137.698602 61.880695 
L 137.699917 61.400424 
L 137.699998 60.925778 
L 137.7 60.456627 
L 137.7 59.992844 
L 137.7 59.534309 
L 137.7 59.080904 
L 137.699981 58.632515 
L 137.699611 58.189032 
L 137.696691 57.75035 
L 137.688526 57.316365 
L 137.683763 56.886979 
L 137.690623 56.462094 
L 137.69779 56.041617 
L 137.70221 56.041617 
L 137.70221 56.041617 
L 137.709377 56.462094 
L 137.716237 56.886979 
L 137.711474 57.316365 
L 137.703309 57.75035 
L 137.700389 58.189032 
L 137.700019 58.632515 
L 137.7 59.080904 
L 137.7 59.534309 
L 137.7 59.992844 
L 137.7 60.456627 
L 137.700002 60.925778 
L 137.700083 61.400424 
L 137.701398 61.880695 
L 137.709615 62.366725 
L 137.726997 62.858654 
L 137.730939 63.356628 
L 137.714647 63.860797 
L 137.704759 64.371317 
L 137.709104 64.88835 
L 137.716143 65.412064 
L 137.712128 65.942634 
L 137.706336 66.480243 
L 137.717286 67.025078 
L 137.742751 67.577339 
L 137.744563 68.137228 
L 137.719784 68.704961 
L 137.711666 69.28076 
L 137.743197 69.864857 
L 137.80459 70.457496 
L 137.828096 71.05893 
L 137.779961 71.669423 
L 137.731646 72.289253 
L 137.729215 72.918711 
L 137.734037 73.558099 
L 137.730634 74.207736 
L 137.75396 74.867956 
L 137.824031 75.539109 
L 137.904989 76.221565 
L 137.889007 76.915709 
L 137.808953 77.62195 
L 137.790552 78.340717 
L 137.887955 79.072461 
L 137.979817 79.81766 
L 137.938336 80.576818 
L 137.868516 81.350468 
L 137.854257 82.139175 
L 137.885738 82.943535 
L 137.892458 83.764183 
L 137.893494 84.601793 
L 137.972969 85.457079 
L 138.127651 86.330805 
L 138.176889 87.223782 
L 138.03549 88.136879 
L 137.985128 89.071024 
L 138.172872 90.027208 
L 138.568974 91.006498 
L 138.99334 92.010038 
L 139.178545 93.039059 
L 139.134841 94.094889 
L 139.13246 95.178963 
L 139.128597 96.292833 
L 139.027089 97.438184 
L 139.036421 98.616846 
L 139.409479 99.830817 
L 140.266316 101.082276 
L 141.305893 102.373613 
L 141.774055 103.707453 
L 141.481974 105.08669 
L 142.047292 106.514523 
L 143.22793 107.994502 
L 143.562438 109.530581 
L 143.803877 111.127181 
L 144.965688 112.789266 
L 146.285146 114.522441 
L 146.118428 116.333058 
L 146.122928 118.228363 
L 149.087992 120.216669 
L 154.10682 122.307576 
L 156.867291 124.512251 
L 156.834292 126.843792 
L 159.565667 129.317694 
L 167.662854 131.95248 
L 178.597522 134.770541 
L 183.783967 137.799291 
L 183.464092 141.072799 
L 186.284671 144.634129 
L 196.621445 148.538816 
L 204.66 152.860202 
L 200.443789 157.697968 
L 193.361285 163.192487 
L 193.530168 169.550506 
L 198.507602 177.094973 
L 193.541748 186.372647 
L 179.211654 198.425015 
L 166.312516 215.655654 
L 157.166163 246.24 
L 149.688743 93500.23293 
L 142.59491 93500.23293 
L 138.701612 93500.23293 
z
" clip-path="url(#p0828687010)" style="fill: #6b77b0; stroke: #4b4b4b; stroke-width: 1.5"/>
   </g>
   <g id="PolyCollection_2">
    <path d="M 305.792231 93500.23293 
L 304.407769 93500.23293 
L 301.251316 93500.23293 
L 294.758977 93500.23293 
L 286.738995 230.280817 
L 275.952938 202.069598 
L 263.924821 185.597146 
L 257.870529 173.918073 
L 257.304035 164.862564 
L 257.554078 157.465462 
L 258.601581 151.21234 
L 261.909078 145.796298 
L 265.686392 141.019452 
L 267.802207 136.74673 
L 269.423376 132.881811 
L 272.640394 129.353588 
L 277.114995 126.10807 
L 281.690046 123.103295 
L 285.138861 120.305999 
L 287.548489 117.689373 
L 289.785708 115.231486 
L 291.783153 112.914176 
L 293.369682 110.722228 
L 294.521471 108.642773 
L 295.986316 106.664825 
L 297.779796 104.778933 
L 298.894783 102.976909 
L 299.806017 101.251609 
L 300.737161 99.596767 
L 301.323426 98.006852 
L 301.722187 96.476962 
L 302.181235 95.002728 
L 302.73398 93.580244 
L 303.066917 92.205998 
L 303.155779 90.876827 
L 303.316209 89.589866 
L 303.588162 88.342518 
L 303.903123 87.132416 
L 304.078178 85.9574 
L 304.059487 84.815494 
L 304.041612 83.704881 
L 304.170542 82.623893 
L 304.262184 81.57099 
L 304.301418 80.54475 
L 304.406692 79.543855 
L 304.534717 78.567084 
L 304.561209 77.613301 
L 304.560973 76.681449 
L 304.582296 75.770542 
L 304.635277 74.879659 
L 304.71351 74.007939 
L 304.719844 73.154575 
L 304.742145 72.318809 
L 304.831879 71.49993 
L 304.946772 70.69727 
L 305.01636 69.910198 
L 304.980326 69.13812 
L 304.875658 68.380477 
L 304.815716 67.636737 
L 304.830916 66.9064 
L 304.879053 66.188992 
L 304.931351 65.484062 
L 304.952847 64.791184 
L 304.956651 64.109953 
L 304.987811 63.439983 
L 305.012741 62.780909 
L 305.042242 62.132381 
L 305.028445 61.494068 
L 304.963342 60.865652 
L 304.951454 60.246832 
L 304.959531 59.637318 
L 304.967397 59.036835 
L 305.007093 58.44512 
L 305.052838 57.861919 
L 305.086391 57.286992 
L 305.090997 56.720107 
L 305.079846 56.161042 
L 305.069875 55.609584 
L 305.048176 55.065528 
L 305.023015 54.52868 
L 305.034971 53.99885 
L 305.074055 53.475857 
L 305.095464 52.959527 
L 305.096018 52.449693 
L 305.081795 51.946192 
L 305.067001 51.44887 
L 305.077859 50.957577 
L 305.094503 50.472168 
L 305.099495 49.992504 
L 305.099983 49.518451 
L 305.1 49.049878 
L 305.1 48.586662 
L 305.1 48.128679 
L 305.1 47.675814 
L 305.099981 47.227954 
L 305.099384 46.784989 
L 305.092651 46.346813 
L 305.06754 45.913324 
L 305.046947 45.484422 
L 305.067915 45.060012 
L 305.09282 44.64 
L 305.10718 44.64 
L 305.10718 44.64 
L 305.132085 45.060012 
L 305.153053 45.484422 
L 305.13246 45.913324 
L 305.107349 46.346813 
L 305.100616 46.784989 
L 305.100019 47.227954 
L 305.1 47.675814 
L 305.1 48.128679 
L 305.1 48.586662 
L 305.1 49.049878 
L 305.100017 49.518451 
L 305.100505 49.992504 
L 305.105497 50.472168 
L 305.122141 50.957577 
L 305.132999 51.44887 
L 305.118205 51.946192 
L 305.103982 52.449693 
L 305.104536 52.959527 
L 305.125945 53.475857 
L 305.165029 53.99885 
L 305.176985 54.52868 
L 305.151824 55.065528 
L 305.130125 55.609584 
L 305.120154 56.161042 
L 305.109003 56.720107 
L 305.113609 57.286992 
L 305.147162 57.861919 
L 305.192907 58.44512 
L 305.232603 59.036835 
L 305.240469 59.637318 
L 305.248546 60.246832 
L 305.236658 60.865652 
L 305.171555 61.494068 
L 305.157758 62.132381 
L 305.187259 62.780909 
L 305.212189 63.439983 
L 305.243349 64.109953 
L 305.247153 64.791184 
L 305.268649 65.484062 
L 305.320947 66.188992 
L 305.369084 66.9064 
L 305.384284 67.636737 
L 305.324342 68.380477 
L 305.219674 69.13812 
L 305.18364 69.910198 
L 305.253228 70.69727 
L 305.368121 71.49993 
L 305.457855 72.318809 
L 305.480156 73.154575 
L 305.48649 74.007939 
L 305.564723 74.879659 
L 305.617704 75.770542 
L 305.639027 76.681449 
L 305.638791 77.613301 
L 305.665283 78.567084 
L 305.793308 79.543855 
L 305.898582 80.54475 
L 305.937816 81.57099 
L 306.029458 82.623893 
L 306.158388 83.704881 
L 306.140513 84.815494 
L 306.121822 85.9574 
L 306.296877 87.132416 
L 306.611838 88.342518 
L 306.883791 89.589866 
L 307.044221 90.876827 
L 307.133083 92.205998 
L 307.46602 93.580244 
L 308.018765 95.002728 
L 308.477813 96.476962 
L 308.876574 98.006852 
L 309.462839 99.596767 
L 310.393983 101.251609 
L 311.305217 102.976909 
L 312.420204 104.778933 
L 314.213684 106.664825 
L 315.678529 108.642773 
L 316.830318 110.722228 
L 318.416847 112.914176 
L 320.414292 115.231486 
L 322.651511 117.689373 
L 325.061139 120.305999 
L 328.509954 123.103295 
L 333.085005 126.10807 
L 337.559606 129.353588 
L 340.776624 132.881811 
L 342.397793 136.74673 
L 344.513608 141.019452 
L 348.290922 145.796298 
L 351.598419 151.21234 
L 352.645922 157.465462 
L 352.895965 164.862564 
L 352.329471 173.918073 
L 346.275179 185.597146 
L 334.247062 202.069598 
L 323.461005 230.280817 
L 315.441023 93500.23293 
L 308.948684 93500.23293 
L 305.792231 93500.23293 
z
" clip-path="url(#p0828687010)" style="fill: #a15858; stroke: #4b4b4b; stroke-width: 1.5"/>
   </g>
   <g id="patch_3">
    <path d="M 120.96 173.565741 
L 154.44 173.565741 
L 154.44 135.79956 
L 120.96 135.79956 
L 120.96 173.565741 
z
" clip-path="url(#p0828687010)" style="fill: #4961d2; fill-opacity: 0.55; stroke: #000000; stroke-width: 1.5; stroke-linejoin: miter"/>
   </g>
   <g id="line2d_3">
    <path d="M 137.7 173.565741 
L 137.7 289 
" clip-path="url(#p0828687010)" style="fill: none; stroke: #000000; stroke-width: 1.5; stroke-linecap: round"/>
   </g>
   <g id="line2d_4">
    <path d="M 137.7 135.79956 
L 137.7 109.592846 
" clip-path="url(#p0828687010)" style="fill: none; stroke: #000000; stroke-width: 1.5; stroke-linecap: round"/>
   </g>
   <g id="line2d_5">
    <path clip-path="url(#p0828687010)" style="fill: none; stroke: #000000; stroke-width: 1.5; stroke-linecap: round"/>
   </g>
   <g id="line2d_6">
    <path d="M 129.33 109.592846 
L 146.07 109.592846 
" clip-path="url(#p0828687010)" style="fill: none; stroke: #000000; stroke-width: 1.5; stroke-linecap: round"/>
   </g>
   <g id="patch_4">
    <path d="M 288.36 165.119595 
L 321.84 165.119595 
L 321.84 124.140288 
L 288.36 124.140288 
L 288.36 165.119595 
z
" clip-path="url(#p0828687010)" style="fill: #c53334; fill-opacity: 0.55; stroke: #000000; stroke-width: 1.5; stroke-linejoin: miter"/>
   </g>
   <g id="line2d_7">
    <path d="M 305.1 165.119595 
L 305.1 289 
" clip-path="url(#p0828687010)" style="fill: none; stroke: #000000; stroke-width: 1.5; stroke-linecap: round"/>
   </g>
   <g id="line2d_8">
    <path d="M 305.1 124.140288 
L 305.1 97.22566 
" clip-path="url(#p0828687010)" style="fill: none; stroke: #000000; stroke-width: 1.5; stroke-linecap: round"/>
   </g>
   <g id="line2d_9">
    <path clip-path="url(#p0828687010)" style="fill: none; stroke: #000000; stroke-width: 1.5; stroke-linecap: round"/>
   </g>
   <g id="line2d_10">
    <path d="M 296.73 97.22566 
L 313.47 97.22566 
" clip-path="url(#p0828687010)" style="fill: none; stroke: #000000; stroke-width: 1.5; stroke-linecap: round"/>
   </g>
   <g id="line2d_11">
    <path d="M 120.96 152.23238 
L 154.44 152.23238 
" clip-path="url(#p0828687010)" style="fill: none; stroke: #000000; stroke-width: 1.5; stroke-linecap: round"/>
   </g>
   <g id="line2d_12">
    <path d="M 120.96 145.176363 
L 154.44 145.176363 
" clip-path="url(#p0828687010)" style="fill: none; stroke-dasharray: 3.7,1.6; stroke-dashoffset: 0; stroke: #000000"/>
   </g>
   <g id="line2d_13">
    <path d="M 288.36 142.881019 
L 321.84 142.881019 
" clip-path="url(#p0828687010)" style="fill: none; stroke: #000000; stroke-width: 1.5; stroke-linecap: round"/>
   </g>
   <g id="line2d_14">
    <path d="M 288.36 134.491677 
L 321.84 134.491677 
" clip-path="url(#p0828687010)" style="fill: none; stroke-dasharray: 3.7,1.6; stroke-dashoffset: 0; stroke: #000000"/>
   </g>
   <g id="patch_5">
    <path d="M 54 256.32 
L 54 34.56 
" style="fill: none; stroke: #cccccc; stroke-width: 0.8; stroke-linejoin: miter; stroke-linecap: square"/>
   </g>
   <g id="patch_6">
    <path d="M 388.8 256.32 
L 388.8 34.56 
" style="fill: none; stroke: #cccccc; stroke-width: 0.8; stroke-linejoin: miter; stroke-linecap: square"/>
   </g>
   <g id="patch_7">
    <path d="M 54 256.32 
L 388.8 256.32 
" style="fill: none; stroke: #cccccc; stroke-width: 0.8; stroke-linejoin: miter; stroke-linecap: square"/>
   </g>
   <g id="patch_8">
    <path d="M 54 34.56 
L 388.8 34.56 
" style="fill: none; stroke: #cccccc; stroke-width: 0.8; stroke-linejoin: miter; stroke-linecap: square"/>
   </g>
  </g>
 </g>
 <defs>
  <clipPath id="p0828687010">
   <rect x="54" y="34.56" width="334.8" height="221.76"/>
  </clipPath>
 </defs>
</svg>
