<?xml version="1.0" encoding="utf-8" standalone="no"?>
<!DOCTYPE svg PUBLIC "-//W3C//DTD SVG 1.1//EN"
  "http://www.w3.org/Graphics/SVG/1.1/DTD/svg11.dtd">
<svg xmlns:xlink="http://www.w3.org/1999/xlink" width="432pt" height="288pt" viewBox="0 0 432 288" xmlns="http://www.w3.org/2000/svg" version="1.1">
 <metadata>
  <rdf:RDF xmlns:dc="http://purl.org/dc/elements/1.1/" xmlns:cc="http://creativecommons.org/ns#" xmlns:rdf="http://www.w3.org/1999/02/22-rdf-syntax-ns#">
   <cc:Work>
    <dc:type rdf:resource="http://purl.org/dc/dcmitype/StillImage"/>
    <dc:date>2022-09-28T15:48:38.687498</dc:date>
    <dc:format>image/svg+xml</dc:format>
    <dc:creator>
     <cc:Agent>
      <dc:title>Matplotlib v3.5.3, https://matplotlib.org/</dc:title>
     </cc:Agent>
    </dc:creator>
   </cc:Work>
  </rdf:RDF>
 </metadata>
 <defs>
  <style type="text/css">*{stroke-linejoin: round; stroke-linecap: butt}</style>
 </defs>
 <g id="figure_1">
  <g id="patch_1">
   <path d="M 0 288 
L 432 288 
L 432 0 
L 0 0 
z
" style="fill: #ffffff"/>
  </g>
  <g id="axes_1">
   <g id="patch_2">
    <path d="M 54 256.32 
L 388.8 256.32 
L 388.8 34.56 
L 54 34.56 
z
" style="fill: #ffffff"/>
   </g>
   <g id="matplotlib.axis_1">
    <g id="xtick_1">
     <g id="text_1">
      <!-- street -->
      <g style="fill: #262626" transform="translate(125.196094 270.477813)scale(0.1 -0.1)">
       <defs>
        <path id="ArialMT-73" d="M 197 991 
L 753 1078 
Q 800 744 1014 566 
Q 1228 388 1613 388 
Q 2000 388 2187 545 
Q 2375 703 2375 916 
Q 2375 1106 2209 1216 
Q 2094 1291 1634 1406 
Q 1016 1563 777 1677 
Q 538 1791 414 1992 
Q 291 2194 291 2438 
Q 291 2659 392 2848 
Q 494 3038 669 3163 
Q 800 3259 1026 3326 
Q 1253 3394 1513 3394 
Q 1903 3394 2198 3281 
Q 2494 3169 2634 2976 
Q 2775 2784 2828 2463 
L 2278 2388 
Q 2241 2644 2061 2787 
Q 1881 2931 1553 2931 
Q 1166 2931 1000 2803 
Q 834 2675 834 2503 
Q 834 2394 903 2306 
Q 972 2216 1119 2156 
Q 1203 2125 1616 2013 
Q 2213 1853 2448 1751 
Q 2684 1650 2818 1456 
Q 2953 1263 2953 975 
Q 2953 694 2789 445 
Q 2625 197 2315 61 
Q 2006 -75 1616 -75 
Q 969 -75 630 194 
Q 291 463 197 991 
z
" transform="scale(0.015625)"/>
        <path id="ArialMT-74" d="M 1650 503 
L 1731 6 
Q 1494 -44 1306 -44 
Q 1000 -44 831 53 
Q 663 150 594 308 
Q 525 466 525 972 
L 525 2881 
L 113 2881 
L 113 3319 
L 525 3319 
L 525 4141 
L 1084 4478 
L 1084 3319 
L 1650 3319 
L 1650 2881 
L 1084 2881 
L 1084 941 
Q 1084 700 1114 631 
Q 1144 563 1211 522 
Q 1278 481 1403 481 
Q 1497 481 1650 503 
z
" transform="scale(0.015625)"/>
        <path id="ArialMT-72" d="M 416 0 
L 416 3319 
L 922 3319 
L 922 2816 
Q 1116 3169 1280 3281 
Q 1444 3394 1641 3394 
Q 1925 3394 2219 3213 
L 2025 2691 
Q 1819 2813 1613 2813 
Q 1428 2813 1281 2702 
Q 1134 2591 1072 2394 
Q 978 2094 978 1738 
L 978 0 
L 416 0 
z
" transform="scale(0.015625)"/>
        <path id="ArialMT-65" d="M 2694 1069 
L 3275 997 
Q 3138 488 2766 206 
Q 2394 -75 1816 -75 
Q 1088 -75 661 373 
Q 234 822 234 1631 
Q 234 2469 665 2931 
Q 1097 3394 1784 3394 
Q 2450 3394 2872 2941 
Q 3294 2488 3294 1666 
Q 3294 1616 3291 1516 
L 816 1516 
Q 847 969 1125 678 
Q 1403 388 1819 388 
Q 2128 388 2347 550 
Q 2566 713 2694 1069 
z
M 847 1978 
L 2700 1978 
Q 2663 2397 2488 2606 
Q 2219 2931 1791 2931 
Q 1403 2931 1139 2672 
Q 875 2413 847 1978 
z
" transform="scale(0.015625)"/>
       </defs>
       <use xlink:href="#ArialMT-73"/>
       <use xlink:href="#ArialMT-74" x="50"/>
       <use xlink:href="#ArialMT-72" x="77.783203"/>
       <use xlink:href="#ArialMT-65" x="111.083984"/>
       <use xlink:href="#ArialMT-65" x="166.699219"/>
       <use xlink:href="#ArialMT-74" x="222.314453"/>
      </g>
     </g>
    </g>
    <g id="xtick_2">
     <g id="text_2">
      <!-- river -->
      <g style="fill: #262626" transform="translate(295.378906 270.477813)scale(0.1 -0.1)">
       <defs>
        <path id="ArialMT-69" d="M 425 3934 
L 425 4581 
L 988 4581 
L 988 3934 
L 425 3934 
z
M 425 0 
L 425 3319 
L 988 3319 
L 988 0 
L 425 0 
z
" transform="scale(0.015625)"/>
        <path id="ArialMT-76" d="M 1344 0 
L 81 3319 
L 675 3319 
L 1388 1331 
Q 1503 1009 1600 663 
Q 1675 925 1809 1294 
L 2547 3319 
L 3125 3319 
L 1869 0 
L 1344 0 
z
" transform="scale(0.015625)"/>
       </defs>
       <use xlink:href="#ArialMT-72"/>
       <use xlink:href="#ArialMT-69" x="33.300781"/>
       <use xlink:href="#ArialMT-76" x="55.517578"/>
       <use xlink:href="#ArialMT-65" x="105.517578"/>
       <use xlink:href="#ArialMT-72" x="161.132812"/>
      </g>
     </g>
    </g>
   </g>
   <g id="matplotlib.axis_2">
    <g id="ytick_1">
     <g id="line2d_1">
      <path d="M 54 219.537679 
L 388.8 219.537679 
" clip-path="url(#p11fd2598a0)" style="fill: none; stroke: #cccccc; stroke-width: 0.8; stroke-linecap: round"/>
     </g>
     <g id="text_3">
      <!-- $\mathdefault{10^{-1}}$ -->
      <g style="fill: #262626" transform="translate(27.2 224.693929)scale(0.1 -0.1)">
       <defs>
        <path id="ArialMT-31" d="M 2384 0 
L 1822 0 
L 1822 3584 
Q 1619 3391 1289 3197 
Q 959 3003 697 2906 
L 697 3450 
Q 1169 3672 1522 3987 
Q 1875 4303 2022 4600 
L 2384 4600 
L 2384 0 
z
" transform="scale(0.015625)"/>
        <path id="ArialMT-30" d="M 266 2259 
Q 266 3072 433 3567 
Q 600 4063 929 4331 
Q 1259 4600 1759 4600 
Q 2128 4600 2406 4451 
Q 2684 4303 2865 4023 
Q 3047 3744 3150 3342 
Q 3253 2941 3253 2259 
Q 3253 1453 3087 958 
Q 2922 463 2592 192 
Q 2263 -78 1759 -78 
Q 1097 -78 719 397 
Q 266 969 266 2259 
z
M 844 2259 
Q 844 1131 1108 757 
Q 1372 384 1759 384 
Q 2147 384 2411 759 
Q 2675 1134 2675 2259 
Q 2675 3391 2411 3762 
Q 2147 4134 1753 4134 
Q 1366 4134 1134 3806 
Q 844 3388 844 2259 
z
" transform="scale(0.015625)"/>
        <path id="ArialMT-2212" d="M 3381 1997 
L 356 1997 
L 356 2522 
L 3381 2522 
L 3381 1997 
z
" transform="scale(0.015625)"/>
       </defs>
       <use xlink:href="#ArialMT-31" transform="translate(0 0.99375)"/>
       <use xlink:href="#ArialMT-30" transform="translate(55.615234 0.99375)"/>
       <use xlink:href="#ArialMT-2212" transform="translate(112.972813 70.6875)scale(0.7)"/>
       <use xlink:href="#ArialMT-31" transform="translate(153.851719 70.6875)scale(0.7)"/>
      </g>
     </g>
    </g>
    <g id="ytick_2">
     <g id="line2d_2">
      <path d="M 54 148.743442 
L 388.8 148.743442 
" clip-path="url(#p11fd2598a0)" style="fill: none; stroke: #cccccc; stroke-width: 0.8; stroke-linecap: round"/>
     </g>
     <g id="text_4">
      <!-- $\mathdefault{10^{0}}$ -->
      <g style="fill: #262626" transform="translate(31.3 153.899692)scale(0.1 -0.1)">
       <use xlink:href="#ArialMT-31" transform="translate(0 0.99375)"/>
       <use xlink:href="#ArialMT-30" transform="translate(55.615234 0.99375)"/>
       <use xlink:href="#ArialMT-30" transform="translate(112.972813 70.6875)scale(0.7)"/>
      </g>
     </g>
    </g>
    <g id="ytick_3">
     <g id="line2d_3">
      <path d="M 54 77.949205 
L 388.8 77.949205 
" clip-path="url(#p11fd2598a0)" style="fill: none; stroke: #cccccc; stroke-width: 0.8; stroke-linecap: round"/>
     </g>
     <g id="text_5">
      <!-- $\mathdefault{10^{1}}$ -->
      <g style="fill: #262626" transform="translate(31.3 83.105455)scale(0.1 -0.1)">
       <use xlink:href="#ArialMT-31" transform="translate(0 0.99375)"/>
       <use xlink:href="#ArialMT-30" transform="translate(55.615234 0.99375)"/>
       <use xlink:href="#ArialMT-31" transform="translate(112.972813 70.6875)scale(0.7)"/>
      </g>
     </g>
    </g>
    <g id="ytick_4"/>
    <g id="ytick_5"/>
    <g id="ytick_6"/>
    <g id="ytick_7"/>
    <g id="ytick_8"/>
    <g id="ytick_9"/>
    <g id="ytick_10"/>
    <g id="ytick_11"/>
    <g id="ytick_12"/>
    <g id="ytick_13"/>
    <g id="ytick_14"/>
    <g id="ytick_15"/>
    <g id="ytick_16"/>
    <g id="ytick_17"/>
    <g id="ytick_18"/>
    <g id="ytick_19"/>
    <g id="ytick_20"/>
    <g id="ytick_21"/>
    <g id="ytick_22"/>
    <g id="ytick_23"/>
    <g id="ytick_24"/>
    <g id="ytick_25"/>
    <g id="ytick_26"/>
    <g id="ytick_27"/>
    <g id="ytick_28"/>
    <g id="text_6">
     <!-- Fixation distance [fields] -->
     <g style="fill: #262626" transform="translate(21.2125 198.79625)rotate(-90)scale(0.1 -0.1)">
      <defs>
       <path id="ArialMT-46" d="M 525 0 
L 525 4581 
L 3616 4581 
L 3616 4041 
L 1131 4041 
L 1131 2622 
L 3281 2622 
L 3281 2081 
L 1131 2081 
L 1131 0 
L 525 0 
z
" transform="scale(0.015625)"/>
       <path id="ArialMT-78" d="M 47 0 
L 1259 1725 
L 138 3319 
L 841 3319 
L 1350 2541 
Q 1494 2319 1581 2169 
Q 1719 2375 1834 2534 
L 2394 3319 
L 3066 3319 
L 1919 1756 
L 3153 0 
L 2463 0 
L 1781 1031 
L 1600 1309 
L 728 0 
L 47 0 
z
" transform="scale(0.015625)"/>
       <path id="ArialMT-61" d="M 2588 409 
Q 2275 144 1986 34 
Q 1697 -75 1366 -75 
Q 819 -75 525 192 
Q 231 459 231 875 
Q 231 1119 342 1320 
Q 453 1522 633 1644 
Q 813 1766 1038 1828 
Q 1203 1872 1538 1913 
Q 2219 1994 2541 2106 
Q 2544 2222 2544 2253 
Q 2544 2597 2384 2738 
Q 2169 2928 1744 2928 
Q 1347 2928 1158 2789 
Q 969 2650 878 2297 
L 328 2372 
Q 403 2725 575 2942 
Q 747 3159 1072 3276 
Q 1397 3394 1825 3394 
Q 2250 3394 2515 3294 
Q 2781 3194 2906 3042 
Q 3031 2891 3081 2659 
Q 3109 2516 3109 2141 
L 3109 1391 
Q 3109 606 3145 398 
Q 3181 191 3288 0 
L 2700 0 
Q 2613 175 2588 409 
z
M 2541 1666 
Q 2234 1541 1622 1453 
Q 1275 1403 1131 1340 
Q 988 1278 909 1158 
Q 831 1038 831 891 
Q 831 666 1001 516 
Q 1172 366 1500 366 
Q 1825 366 2078 508 
Q 2331 650 2450 897 
Q 2541 1088 2541 1459 
L 2541 1666 
z
" transform="scale(0.015625)"/>
       <path id="ArialMT-6f" d="M 213 1659 
Q 213 2581 725 3025 
Q 1153 3394 1769 3394 
Q 2453 3394 2887 2945 
Q 3322 2497 3322 1706 
Q 3322 1066 3130 698 
Q 2938 331 2570 128 
Q 2203 -75 1769 -75 
Q 1072 -75 642 372 
Q 213 819 213 1659 
z
M 791 1659 
Q 791 1022 1069 705 
Q 1347 388 1769 388 
Q 2188 388 2466 706 
Q 2744 1025 2744 1678 
Q 2744 2294 2464 2611 
Q 2184 2928 1769 2928 
Q 1347 2928 1069 2612 
Q 791 2297 791 1659 
z
" transform="scale(0.015625)"/>
       <path id="ArialMT-6e" d="M 422 0 
L 422 3319 
L 928 3319 
L 928 2847 
Q 1294 3394 1984 3394 
Q 2284 3394 2536 3286 
Q 2788 3178 2913 3003 
Q 3038 2828 3088 2588 
Q 3119 2431 3119 2041 
L 3119 0 
L 2556 0 
L 2556 2019 
Q 2556 2363 2490 2533 
Q 2425 2703 2258 2804 
Q 2091 2906 1866 2906 
Q 1506 2906 1245 2678 
Q 984 2450 984 1813 
L 984 0 
L 422 0 
z
" transform="scale(0.015625)"/>
       <path id="ArialMT-20" transform="scale(0.015625)"/>
       <path id="ArialMT-64" d="M 2575 0 
L 2575 419 
Q 2259 -75 1647 -75 
Q 1250 -75 917 144 
Q 584 363 401 755 
Q 219 1147 219 1656 
Q 219 2153 384 2558 
Q 550 2963 881 3178 
Q 1213 3394 1622 3394 
Q 1922 3394 2156 3267 
Q 2391 3141 2538 2938 
L 2538 4581 
L 3097 4581 
L 3097 0 
L 2575 0 
z
M 797 1656 
Q 797 1019 1065 703 
Q 1334 388 1700 388 
Q 2069 388 2326 689 
Q 2584 991 2584 1609 
Q 2584 2291 2321 2609 
Q 2059 2928 1675 2928 
Q 1300 2928 1048 2622 
Q 797 2316 797 1656 
z
" transform="scale(0.015625)"/>
       <path id="ArialMT-63" d="M 2588 1216 
L 3141 1144 
Q 3050 572 2676 248 
Q 2303 -75 1759 -75 
Q 1078 -75 664 370 
Q 250 816 250 1647 
Q 250 2184 428 2587 
Q 606 2991 970 3192 
Q 1334 3394 1763 3394 
Q 2303 3394 2647 3120 
Q 2991 2847 3088 2344 
L 2541 2259 
Q 2463 2594 2264 2762 
Q 2066 2931 1784 2931 
Q 1359 2931 1093 2626 
Q 828 2322 828 1663 
Q 828 994 1084 691 
Q 1341 388 1753 388 
Q 2084 388 2306 591 
Q 2528 794 2588 1216 
z
" transform="scale(0.015625)"/>
       <path id="ArialMT-5b" d="M 434 -1272 
L 434 4581 
L 1675 4581 
L 1675 4116 
L 997 4116 
L 997 -806 
L 1675 -806 
L 1675 -1272 
L 434 -1272 
z
" transform="scale(0.015625)"/>
       <path id="ArialMT-66" d="M 556 0 
L 556 2881 
L 59 2881 
L 59 3319 
L 556 3319 
L 556 3672 
Q 556 4006 616 4169 
Q 697 4388 901 4523 
Q 1106 4659 1475 4659 
Q 1713 4659 2000 4603 
L 1916 4113 
Q 1741 4144 1584 4144 
Q 1328 4144 1222 4034 
Q 1116 3925 1116 3625 
L 1116 3319 
L 1763 3319 
L 1763 2881 
L 1116 2881 
L 1116 0 
L 556 0 
z
" transform="scale(0.015625)"/>
       <path id="ArialMT-6c" d="M 409 0 
L 409 4581 
L 972 4581 
L 972 0 
L 409 0 
z
" transform="scale(0.015625)"/>
       <path id="ArialMT-5d" d="M 1363 -1272 
L 122 -1272 
L 122 -806 
L 800 -806 
L 800 4116 
L 122 4116 
L 122 4581 
L 1363 4581 
L 1363 -1272 
z
" transform="scale(0.015625)"/>
      </defs>
      <use xlink:href="#ArialMT-46"/>
      <use xlink:href="#ArialMT-69" x="61.083984"/>
      <use xlink:href="#ArialMT-78" x="83.300781"/>
      <use xlink:href="#ArialMT-61" x="133.300781"/>
      <use xlink:href="#ArialMT-74" x="188.916016"/>
      <use xlink:href="#ArialMT-69" x="216.699219"/>
      <use xlink:href="#ArialMT-6f" x="238.916016"/>
      <use xlink:href="#ArialMT-6e" x="294.53125"/>
      <use xlink:href="#ArialMT-20" x="350.146484"/>
      <use xlink:href="#ArialMT-64" x="377.929688"/>
      <use xlink:href="#ArialMT-69" x="433.544922"/>
      <use xlink:href="#ArialMT-73" x="455.761719"/>
      <use xlink:href="#ArialMT-74" x="505.761719"/>
      <use xlink:href="#ArialMT-61" x="533.544922"/>
      <use xlink:href="#ArialMT-6e" x="589.160156"/>
      <use xlink:href="#ArialMT-63" x="644.775391"/>
      <use xlink:href="#ArialMT-65" x="694.775391"/>
      <use xlink:href="#ArialMT-20" x="750.390625"/>
      <use xlink:href="#ArialMT-5b" x="778.173828"/>
      <use xlink:href="#ArialMT-66" x="805.957031"/>
      <use xlink:href="#ArialMT-69" x="833.740234"/>
      <use xlink:href="#ArialMT-65" x="855.957031"/>
      <use xlink:href="#ArialMT-6c" x="911.572266"/>
      <use xlink:href="#ArialMT-64" x="933.789062"/>
      <use xlink:href="#ArialMT-73" x="989.404297"/>
      <use xlink:href="#ArialMT-5d" x="1039.404297"/>
     </g>
    </g>
   </g>
   <g id="PolyCollection_1">
    <path d="M 139.133564 70942.98041 
L 136.266436 70942.98041 
L 132.482182 70942.98041 
L 125.361544 70942.98041 
L 117.018729 246.24 
L 109.466508 194.762504 
L 101.569141 176.476857 
L 91.422702 165.089111 
L 79.409263 156.797946 
L 70.74 150.274394 
L 71.408327 144.895635 
L 78.344195 140.319231 
L 82.843847 136.336587 
L 81.014572 132.811175 
L 76.578806 129.648738 
L 77.720903 126.78146 
L 86.592431 124.158918 
L 95.874148 121.7426 
L 100.068847 119.502422 
L 100.448997 117.414442 
L 101.552694 115.459287 
L 106.844586 113.621064 
L 114.209814 111.886573 
L 119.307732 110.244729 
L 121.408964 108.686134 
L 122.393985 107.202752 
L 124.009314 105.787657 
L 126.494814 104.434837 
L 128.811761 103.139042 
L 130.07868 101.895657 
L 130.077342 100.700608 
L 129.697015 99.550277 
L 130.233287 98.441437 
L 131.495029 97.371199 
L 132.373378 96.336966 
L 132.694677 95.336394 
L 133.029834 94.36736 
L 133.601574 93.427938 
L 134.294811 92.51637 
L 134.965279 91.631053 
L 135.439628 90.770516 
L 135.594793 89.933411 
L 135.631779 89.118494 
L 135.887254 88.324621 
L 136.316255 87.550731 
L 136.581792 86.795843 
L 136.481441 86.059046 
L 136.181803 85.339494 
L 136.153836 84.636398 
L 136.523498 83.949021 
L 136.875055 83.276676 
L 136.972758 82.618721 
L 136.961687 81.974551 
L 137.013548 81.3436 
L 137.169543 80.725338 
L 137.351576 80.119265 
L 137.446466 79.524907 
L 137.376411 78.941822 
L 137.178545 78.36959 
L 137.047946 77.807813 
L 137.126318 77.256118 
L 137.314625 76.714147 
L 137.426752 76.181565 
L 137.40754 75.658052 
L 137.369401 75.143304 
L 137.430513 74.637032 
L 137.539019 74.138961 
L 137.579159 73.648831 
L 137.545463 73.166392 
L 137.51209 72.691406 
L 137.535414 72.223647 
L 137.603325 71.762897 
L 137.658254 71.308951 
L 137.664953 70.861609 
L 137.62838 70.420683 
L 137.577909 69.985991 
L 137.537173 69.557359 
L 137.510292 69.134621 
L 137.522175 68.717617 
L 137.585566 68.306193 
L 137.653675 67.900201 
L 137.688555 67.499501 
L 137.698075 67.103957 
L 137.698257 66.713436 
L 137.693364 66.327813 
L 137.683615 65.946967 
L 137.675953 65.570781 
L 137.678988 65.199143 
L 137.688529 64.831943 
L 137.693199 64.469076 
L 137.688249 64.110443 
L 137.678731 63.755944 
L 137.676034 63.405487 
L 137.683723 63.058979 
L 137.692011 62.716333 
L 137.691829 62.377463 
L 137.683356 62.042288 
L 137.675927 61.710728 
L 137.679096 61.382704 
L 137.689218 61.058144 
L 137.696699 60.736974 
L 137.703301 60.736974 
L 137.703301 60.736974 
L 137.710782 61.058144 
L 137.720904 61.382704 
L 137.724073 61.710728 
L 137.716644 62.042288 
L 137.708171 62.377463 
L 137.707989 62.716333 
L 137.716277 63.058979 
L 137.723966 63.405487 
L 137.721269 63.755944 
L 137.711751 64.110443 
L 137.706801 64.469076 
L 137.711471 64.831943 
L 137.721012 65.199143 
L 137.724047 65.570781 
L 137.716385 65.946967 
L 137.706636 66.327813 
L 137.701743 66.713436 
L 137.701925 67.103957 
L 137.711445 67.499501 
L 137.746325 67.900201 
L 137.814434 68.306193 
L 137.877825 68.717617 
L 137.889708 69.134621 
L 137.862827 69.557359 
L 137.822091 69.985991 
L 137.77162 70.420683 
L 137.735047 70.861609 
L 137.741746 71.308951 
L 137.796675 71.762897 
L 137.864586 72.223647 
L 137.88791 72.691406 
L 137.854537 73.166392 
L 137.820841 73.648831 
L 137.860981 74.138961 
L 137.969487 74.637032 
L 138.030599 75.143304 
L 137.99246 75.658052 
L 137.973248 76.181565 
L 138.085375 76.714147 
L 138.273682 77.256118 
L 138.352054 77.807813 
L 138.221455 78.36959 
L 138.023589 78.941822 
L 137.953534 79.524907 
L 138.048424 80.119265 
L 138.230457 80.725338 
L 138.386452 81.3436 
L 138.438313 81.974551 
L 138.427242 82.618721 
L 138.524945 83.276676 
L 138.876502 83.949021 
L 139.246164 84.636398 
L 139.218197 85.339494 
L 138.918559 86.059046 
L 138.818208 86.795843 
L 139.083745 87.550731 
L 139.512746 88.324621 
L 139.768221 89.118494 
L 139.805207 89.933411 
L 139.960372 90.770516 
L 140.434721 91.631053 
L 141.105189 92.51637 
L 141.798426 93.427938 
L 142.370166 94.36736 
L 142.705323 95.336394 
L 143.026622 96.336966 
L 143.904971 97.371199 
L 145.166713 98.441437 
L 145.702985 99.550277 
L 145.322658 100.700608 
L 145.32132 101.895657 
L 146.588239 103.139042 
L 148.905186 104.434837 
L 151.390686 105.787657 
L 153.006015 107.202752 
L 153.991036 108.686134 
L 156.092268 110.244729 
L 161.190186 111.886573 
L 168.555414 113.621064 
L 173.847306 115.459287 
L 174.951003 117.414442 
L 175.331153 119.502422 
L 179.525852 121.7426 
L 188.807569 124.158918 
L 197.679097 126.78146 
L 198.821194 129.648738 
L 194.385428 132.811175 
L 192.556153 136.336587 
L 197.055805 140.319231 
L 203.991673 144.895635 
L 204.66 150.274394 
L 195.990737 156.797946 
L 183.977298 165.089111 
L 173.830859 176.476857 
L 165.933492 194.762504 
L 158.381271 246.24 
L 150.038456 70942.98041 
L 142.917818 70942.98041 
L 139.133564 70942.98041 
z
" clip-path="url(#p11fd2598a0)" style="fill: #6b77b0; stroke: #4b4b4b; stroke-width: 1.5"/>
   </g>
   <g id="PolyCollection_2">
    <path d="M 305.97931 70942.98041 
L 304.22069 70942.98041 
L 300.570899 70942.98041 
L 293.184052 70942.98041 
L 283.967124 188.421541 
L 272.334861 165.489493 
L 260.615686 152.501408 
L 255.583803 143.398831 
L 256.007102 136.384609 
L 257.458038 130.677091 
L 261.237058 125.865034 
L 266.430524 121.705193 
L 270.031316 118.041687 
L 272.465954 114.7686 
L 274.905984 111.810675 
L 277.83099 109.112513 
L 282.028044 106.632152 
L 286.001299 104.337038 
L 288.794549 102.201415 
L 291.08443 100.204549 
L 293.392782 98.329504 
L 295.375066 96.562266 
L 296.464823 94.891111 
L 297.191099 93.306127 
L 298.044518 91.798861 
L 299.085315 90.362047 
L 300.500343 88.989392 
L 301.413452 87.675409 
L 301.571486 86.415289 
L 301.825849 85.204788 
L 302.264569 84.040147 
L 302.706576 82.918017 
L 303.071998 81.835403 
L 303.372781 80.789618 
L 303.500155 79.778237 
L 303.503329 78.799068 
L 303.501836 77.850124 
L 303.471076 76.929594 
L 303.648805 76.035825 
L 304.031738 75.167306 
L 304.355531 74.322648 
L 304.52115 73.500577 
L 304.527635 72.699914 
L 304.497442 71.919574 
L 304.57138 71.158551 
L 304.63812 70.41591 
L 304.675798 69.690785 
L 304.720238 68.982369 
L 304.7301 68.289908 
L 304.764754 67.612701 
L 304.866808 66.950088 
L 304.89469 66.301456 
L 304.826012 65.666225 
L 304.814483 65.043853 
L 304.823691 64.43383 
L 304.753734 63.835676 
L 304.734535 63.248937 
L 304.782393 62.673186 
L 304.836006 62.108019 
L 304.924472 61.553053 
L 304.999722 61.007927 
L 305.034284 60.472298 
L 305.029635 59.945842 
L 305.023498 59.428248 
L 305.036102 58.919223 
L 305.052855 58.418489 
L 305.071429 57.92578 
L 305.070238 57.440842 
L 305.063706 56.963434 
L 305.078676 56.493326 
L 305.090162 56.030298 
L 305.076337 55.57414 
L 305.055358 55.124651 
L 305.060901 54.681639 
L 305.071172 54.244919 
L 305.072687 53.814316 
L 305.084412 53.389661 
L 305.09603 52.970791 
L 305.098905 52.557551 
L 305.093237 52.149791 
L 305.072632 51.747369 
L 305.055248 51.350146 
L 305.070516 50.95799 
L 305.092173 50.570773 
L 305.099163 50.188371 
L 305.099964 49.810668 
L 305.099999 49.437548 
L 305.1 49.068902 
L 305.1 48.704624 
L 305.1 48.344612 
L 305.1 47.988766 
L 305.1 47.636992 
L 305.1 47.289197 
L 305.099999 46.945292 
L 305.099965 46.605192 
L 305.099221 46.268813 
L 305.093083 45.936074 
L 305.075253 45.606897 
L 305.064326 45.281208 
L 305.07928 44.958932 
L 305.095151 44.64 
L 305.104849 44.64 
L 305.104849 44.64 
L 305.12072 44.958932 
L 305.135674 45.281208 
L 305.124747 45.606897 
L 305.106917 45.936074 
L 305.100779 46.268813 
L 305.100035 46.605192 
L 305.100001 46.945292 
L 305.1 47.289197 
L 305.1 47.636992 
L 305.1 47.988766 
L 305.1 48.344612 
L 305.1 48.704624 
L 305.1 49.068902 
L 305.100001 49.437548 
L 305.100036 49.810668 
L 305.100837 50.188371 
L 305.107827 50.570773 
L 305.129484 50.95799 
L 305.144752 51.350146 
L 305.127368 51.747369 
L 305.106763 52.149791 
L 305.101095 52.557551 
L 305.10397 52.970791 
L 305.115588 53.389661 
L 305.127313 53.814316 
L 305.128828 54.244919 
L 305.139099 54.681639 
L 305.144642 55.124651 
L 305.123663 55.57414 
L 305.109838 56.030298 
L 305.121324 56.493326 
L 305.136294 56.963434 
L 305.129762 57.440842 
L 305.128571 57.92578 
L 305.147145 58.418489 
L 305.163898 58.919223 
L 305.176502 59.428248 
L 305.170365 59.945842 
L 305.165716 60.472298 
L 305.200278 61.007927 
L 305.275528 61.553053 
L 305.363994 62.108019 
L 305.417607 62.673186 
L 305.465465 63.248937 
L 305.446266 63.835676 
L 305.376309 64.43383 
L 305.385517 65.043853 
L 305.373988 65.666225 
L 305.30531 66.301456 
L 305.333192 66.950088 
L 305.435246 67.612701 
L 305.4699 68.289908 
L 305.479762 68.982369 
L 305.524202 69.690785 
L 305.56188 70.41591 
L 305.62862 71.158551 
L 305.702558 71.919574 
L 305.672365 72.699914 
L 305.67885 73.500577 
L 305.844469 74.322648 
L 306.168262 75.167306 
L 306.551195 76.035825 
L 306.728924 76.929594 
L 306.698164 77.850124 
L 306.696671 78.799068 
L 306.699845 79.778237 
L 306.827219 80.789618 
L 307.128002 81.835403 
L 307.493424 82.918017 
L 307.935431 84.040147 
L 308.374151 85.204788 
L 308.628514 86.415289 
L 308.786548 87.675409 
L 309.699657 88.989392 
L 311.114685 90.362047 
L 312.155482 91.798861 
L 313.008901 93.306127 
L 313.735177 94.891111 
L 314.824934 96.562266 
L 316.807218 98.329504 
L 319.11557 100.204549 
L 321.405451 102.201415 
L 324.198701 104.337038 
L 328.171956 106.632152 
L 332.36901 109.112513 
L 335.294016 111.810675 
L 337.734046 114.7686 
L 340.168684 118.041687 
L 343.769476 121.705193 
L 348.962942 125.865034 
L 352.741962 130.677091 
L 354.192898 136.384609 
L 354.616197 143.398831 
L 349.584314 152.501408 
L 337.865139 165.489493 
L 326.232876 188.421541 
L 317.015948 70942.98041 
L 309.629101 70942.98041 
L 305.97931 70942.98041 
z
" clip-path="url(#p11fd2598a0)" style="fill: #a15858; stroke: #4b4b4b; stroke-width: 1.5"/>
   </g>
   <g id="patch_3">
    <path d="M 120.96 148.743442 
L 154.44 148.743442 
L 154.44 116.274526 
L 120.96 116.274526 
L 120.96 148.743442 
z
" clip-path="url(#p11fd2598a0)" style="fill: #4961d2; fill-opacity: 0.55; stroke: #000000; stroke-width: 1.5; stroke-linejoin: miter"/>
   </g>
   <g id="line2d_4">
    <path d="M 137.7 148.743442 
L 137.7 289 
" clip-path="url(#p11fd2598a0)" style="fill: none; stroke: #000000; stroke-width: 1.5; stroke-linecap: round"/>
   </g>
   <g id="line2d_5">
    <path d="M 137.7 116.274526 
L 137.7 95.412185 
" clip-path="url(#p11fd2598a0)" style="fill: none; stroke: #000000; stroke-width: 1.5; stroke-linecap: round"/>
   </g>
   <g id="line2d_6">
    <path clip-path="url(#p11fd2598a0)" style="fill: none; stroke: #000000; stroke-width: 1.5; stroke-linecap: round"/>
   </g>
   <g id="line2d_7">
    <path d="M 129.33 95.412185 
L 146.07 95.412185 
" clip-path="url(#p11fd2598a0)" style="fill: none; stroke: #000000; stroke-width: 1.5; stroke-linecap: round"/>
   </g>
   <g id="patch_4">
    <path d="M 288.36 140.764629 
L 321.84 140.764629 
L 321.84 107.658662 
L 288.36 107.658662 
L 288.36 140.764629 
z
" clip-path="url(#p11fd2598a0)" style="fill: #c53334; fill-opacity: 0.55; stroke: #000000; stroke-width: 1.5; stroke-linejoin: miter"/>
   </g>
   <g id="line2d_8">
    <path d="M 305.1 140.764629 
L 305.1 289 
" clip-path="url(#p11fd2598a0)" style="fill: none; stroke: #000000; stroke-width: 1.5; stroke-linecap: round"/>
   </g>
   <g id="line2d_9">
    <path d="M 305.1 107.658662 
L 305.1 86.543455 
" clip-path="url(#p11fd2598a0)" style="fill: none; stroke: #000000; stroke-width: 1.5; stroke-linecap: round"/>
   </g>
   <g id="line2d_10">
    <path clip-path="url(#p11fd2598a0)" style="fill: none; stroke: #000000; stroke-width: 1.5; stroke-linecap: round"/>
   </g>
   <g id="line2d_11">
    <path d="M 296.73 86.543455 
L 313.47 86.543455 
" clip-path="url(#p11fd2598a0)" style="fill: none; stroke: #000000; stroke-width: 1.5; stroke-linecap: round"/>
   </g>
   <g id="line2d_12">
    <path d="M 120.96 129.548765 
L 154.44 129.548765 
" clip-path="url(#p11fd2598a0)" style="fill: none; stroke: #000000; stroke-width: 1.5; stroke-linecap: round"/>
   </g>
   <g id="line2d_13">
    <path d="M 120.96 125.161849 
L 154.44 125.161849 
" clip-path="url(#p11fd2598a0)" style="fill: none; stroke-dasharray: 3.7,1.6; stroke-dashoffset: 0; stroke: #000000"/>
   </g>
   <g id="line2d_14">
    <path d="M 288.36 122.756993 
L 321.84 122.756993 
" clip-path="url(#p11fd2598a0)" style="fill: none; stroke: #000000; stroke-width: 1.5; stroke-linecap: round"/>
   </g>
   <g id="line2d_15">
    <path d="M 288.36 115.493145 
L 321.84 115.493145 
" clip-path="url(#p11fd2598a0)" style="fill: none; stroke-dasharray: 3.7,1.6; stroke-dashoffset: 0; stroke: #000000"/>
   </g>
   <g id="patch_5">
    <path d="M 54 256.32 
L 54 34.56 
" style="fill: none; stroke: #cccccc; stroke-width: 0.8; stroke-linejoin: miter; stroke-linecap: square"/>
   </g>
   <g id="patch_6">
    <path d="M 388.8 256.32 
L 388.8 34.56 
" style="fill: none; stroke: #cccccc; stroke-width: 0.8; stroke-linejoin: miter; stroke-linecap: square"/>
   </g>
   <g id="patch_7">
    <path d="M 54 256.32 
L 388.8 256.32 
" style="fill: none; stroke: #cccccc; stroke-width: 0.8; stroke-linejoin: miter; stroke-linecap: square"/>
   </g>
   <g id="patch_8">
    <path d="M 54 34.56 
L 388.8 34.56 
" style="fill: none; stroke: #cccccc; stroke-width: 0.8; stroke-linejoin: miter; stroke-linecap: square"/>
   </g>
  </g>
 </g>
 <defs>
  <clipPath id="p11fd2598a0">
   <rect x="54" y="34.56" width="334.8" height="221.76"/>
  </clipPath>
 </defs>
</svg>
