<?xml version="1.0" encoding="utf-8" standalone="no"?>
<!DOCTYPE svg PUBLIC "-//W3C//DTD SVG 1.1//EN"
  "http://www.w3.org/Graphics/SVG/1.1/DTD/svg11.dtd">
<svg xmlns:xlink="http://www.w3.org/1999/xlink" width="432pt" height="288pt" viewBox="0 0 432 288" xmlns="http://www.w3.org/2000/svg" version="1.1">
 <metadata>
  <rdf:RDF xmlns:dc="http://purl.org/dc/elements/1.1/" xmlns:cc="http://creativecommons.org/ns#" xmlns:rdf="http://www.w3.org/1999/02/22-rdf-syntax-ns#">
   <cc:Work>
    <dc:type rdf:resource="http://purl.org/dc/dcmitype/StillImage"/>
    <dc:date>2022-10-06T17:21:35.218132</dc:date>
    <dc:format>image/svg+xml</dc:format>
    <dc:creator>
     <cc:Agent>
      <dc:title>Matplotlib v3.5.3, https://matplotlib.org/</dc:title>
     </cc:Agent>
    </dc:creator>
   </cc:Work>
  </rdf:RDF>
 </metadata>
 <defs>
  <style type="text/css">*{stroke-linejoin: round; stroke-linecap: butt}</style>
 </defs>
 <g id="figure_1">
  <g id="patch_1">
   <path d="M 0 288 
L 432 288 
L 432 0 
L 0 0 
z
" style="fill: #ffffff"/>
  </g>
  <g id="axes_1">
   <g id="patch_2">
    <path d="M 54 256.32 
L 388.8 256.32 
L 388.8 34.56 
L 54 34.56 
z
" style="fill: #ffffff"/>
   </g>
   <g id="matplotlib.axis_1">
    <g id="xtick_1">
     <g id="text_1">
      <!-- street -->
      <g style="fill: #262626" transform="translate(125.196094 270.477813)scale(0.1 -0.1)">
       <defs>
        <path id="ArialMT-73" d="M 197 991 
L 753 1078 
Q 800 744 1014 566 
Q 1228 388 1613 388 
Q 2000 388 2187 545 
Q 2375 703 2375 916 
Q 2375 1106 2209 1216 
Q 2094 1291 1634 1406 
Q 1016 1563 777 1677 
Q 538 1791 414 1992 
Q 291 2194 291 2438 
Q 291 2659 392 2848 
Q 494 3038 669 3163 
Q 800 3259 1026 3326 
Q 1253 3394 1513 3394 
Q 1903 3394 2198 3281 
Q 2494 3169 2634 2976 
Q 2775 2784 2828 2463 
L 2278 2388 
Q 2241 2644 2061 2787 
Q 1881 2931 1553 2931 
Q 1166 2931 1000 2803 
Q 834 2675 834 2503 
Q 834 2394 903 2306 
Q 972 2216 1119 2156 
Q 1203 2125 1616 2013 
Q 2213 1853 2448 1751 
Q 2684 1650 2818 1456 
Q 2953 1263 2953 975 
Q 2953 694 2789 445 
Q 2625 197 2315 61 
Q 2006 -75 1616 -75 
Q 969 -75 630 194 
Q 291 463 197 991 
z
" transform="scale(0.015625)"/>
        <path id="ArialMT-74" d="M 1650 503 
L 1731 6 
Q 1494 -44 1306 -44 
Q 1000 -44 831 53 
Q 663 150 594 308 
Q 525 466 525 972 
L 525 2881 
L 113 2881 
L 113 3319 
L 525 3319 
L 525 4141 
L 1084 4478 
L 1084 3319 
L 1650 3319 
L 1650 2881 
L 1084 2881 
L 1084 941 
Q 1084 700 1114 631 
Q 1144 563 1211 522 
Q 1278 481 1403 481 
Q 1497 481 1650 503 
z
" transform="scale(0.015625)"/>
        <path id="ArialMT-72" d="M 416 0 
L 416 3319 
L 922 3319 
L 922 2816 
Q 1116 3169 1280 3281 
Q 1444 3394 1641 3394 
Q 1925 3394 2219 3213 
L 2025 2691 
Q 1819 2813 1613 2813 
Q 1428 2813 1281 2702 
Q 1134 2591 1072 2394 
Q 978 2094 978 1738 
L 978 0 
L 416 0 
z
" transform="scale(0.015625)"/>
        <path id="ArialMT-65" d="M 2694 1069 
L 3275 997 
Q 3138 488 2766 206 
Q 2394 -75 1816 -75 
Q 1088 -75 661 373 
Q 234 822 234 1631 
Q 234 2469 665 2931 
Q 1097 3394 1784 3394 
Q 2450 3394 2872 2941 
Q 3294 2488 3294 1666 
Q 3294 1616 3291 1516 
L 816 1516 
Q 847 969 1125 678 
Q 1403 388 1819 388 
Q 2128 388 2347 550 
Q 2566 713 2694 1069 
z
M 847 1978 
L 2700 1978 
Q 2663 2397 2488 2606 
Q 2219 2931 1791 2931 
Q 1403 2931 1139 2672 
Q 875 2413 847 1978 
z
" transform="scale(0.015625)"/>
       </defs>
       <use xlink:href="#ArialMT-73"/>
       <use xlink:href="#ArialMT-74" x="50"/>
       <use xlink:href="#ArialMT-72" x="77.783203"/>
       <use xlink:href="#ArialMT-65" x="111.083984"/>
       <use xlink:href="#ArialMT-65" x="166.699219"/>
       <use xlink:href="#ArialMT-74" x="222.314453"/>
      </g>
     </g>
    </g>
    <g id="xtick_2">
     <g id="text_2">
      <!-- river -->
      <g style="fill: #262626" transform="translate(295.378906 270.477813)scale(0.1 -0.1)">
       <defs>
        <path id="ArialMT-69" d="M 425 3934 
L 425 4581 
L 988 4581 
L 988 3934 
L 425 3934 
z
M 425 0 
L 425 3319 
L 988 3319 
L 988 0 
L 425 0 
z
" transform="scale(0.015625)"/>
        <path id="ArialMT-76" d="M 1344 0 
L 81 3319 
L 675 3319 
L 1388 1331 
Q 1503 1009 1600 663 
Q 1675 925 1809 1294 
L 2547 3319 
L 3125 3319 
L 1869 0 
L 1344 0 
z
" transform="scale(0.015625)"/>
       </defs>
       <use xlink:href="#ArialMT-72"/>
       <use xlink:href="#ArialMT-69" x="33.300781"/>
       <use xlink:href="#ArialMT-76" x="55.517578"/>
       <use xlink:href="#ArialMT-65" x="105.517578"/>
       <use xlink:href="#ArialMT-72" x="161.132812"/>
      </g>
     </g>
    </g>
   </g>
   <g id="matplotlib.axis_2">
    <g id="ytick_1">
     <g id="line2d_1">
      <path d="M 54 252.280703 
L 388.8 252.280703 
" clip-path="url(#p9c4252f0fb)" style="fill: none; stroke: #cccccc; stroke-width: 0.8; stroke-linecap: round"/>
     </g>
     <g id="text_3">
      <!-- $\mathdefault{10^{-2}}$ -->
      <g style="fill: #262626" transform="translate(27.2 257.436953)scale(0.1 -0.1)">
       <defs>
        <path id="ArialMT-31" d="M 2384 0 
L 1822 0 
L 1822 3584 
Q 1619 3391 1289 3197 
Q 959 3003 697 2906 
L 697 3450 
Q 1169 3672 1522 3987 
Q 1875 4303 2022 4600 
L 2384 4600 
L 2384 0 
z
" transform="scale(0.015625)"/>
        <path id="ArialMT-30" d="M 266 2259 
Q 266 3072 433 3567 
Q 600 4063 929 4331 
Q 1259 4600 1759 4600 
Q 2128 4600 2406 4451 
Q 2684 4303 2865 4023 
Q 3047 3744 3150 3342 
Q 3253 2941 3253 2259 
Q 3253 1453 3087 958 
Q 2922 463 2592 192 
Q 2263 -78 1759 -78 
Q 1097 -78 719 397 
Q 266 969 266 2259 
z
M 844 2259 
Q 844 1131 1108 757 
Q 1372 384 1759 384 
Q 2147 384 2411 759 
Q 2675 1134 2675 2259 
Q 2675 3391 2411 3762 
Q 2147 4134 1753 4134 
Q 1366 4134 1134 3806 
Q 844 3388 844 2259 
z
" transform="scale(0.015625)"/>
        <path id="ArialMT-2212" d="M 3381 1997 
L 356 1997 
L 356 2522 
L 3381 2522 
L 3381 1997 
z
" transform="scale(0.015625)"/>
        <path id="ArialMT-32" d="M 3222 541 
L 3222 0 
L 194 0 
Q 188 203 259 391 
Q 375 700 629 1000 
Q 884 1300 1366 1694 
Q 2113 2306 2375 2664 
Q 2638 3022 2638 3341 
Q 2638 3675 2398 3904 
Q 2159 4134 1775 4134 
Q 1369 4134 1125 3890 
Q 881 3647 878 3216 
L 300 3275 
Q 359 3922 746 4261 
Q 1134 4600 1788 4600 
Q 2447 4600 2831 4234 
Q 3216 3869 3216 3328 
Q 3216 3053 3103 2787 
Q 2991 2522 2730 2228 
Q 2469 1934 1863 1422 
Q 1356 997 1212 845 
Q 1069 694 975 541 
L 3222 541 
z
" transform="scale(0.015625)"/>
       </defs>
       <use xlink:href="#ArialMT-31" transform="translate(0 0.99375)"/>
       <use xlink:href="#ArialMT-30" transform="translate(55.615234 0.99375)"/>
       <use xlink:href="#ArialMT-2212" transform="translate(112.972813 70.6875)scale(0.7)"/>
       <use xlink:href="#ArialMT-32" transform="translate(153.851719 70.6875)scale(0.7)"/>
      </g>
     </g>
    </g>
    <g id="ytick_2">
     <g id="line2d_2">
      <path d="M 54 192.439423 
L 388.8 192.439423 
" clip-path="url(#p9c4252f0fb)" style="fill: none; stroke: #cccccc; stroke-width: 0.8; stroke-linecap: round"/>
     </g>
     <g id="text_4">
      <!-- $\mathdefault{10^{-1}}$ -->
      <g style="fill: #262626" transform="translate(27.2 197.595673)scale(0.1 -0.1)">
       <use xlink:href="#ArialMT-31" transform="translate(0 0.99375)"/>
       <use xlink:href="#ArialMT-30" transform="translate(55.615234 0.99375)"/>
       <use xlink:href="#ArialMT-2212" transform="translate(112.972813 70.6875)scale(0.7)"/>
       <use xlink:href="#ArialMT-31" transform="translate(153.851719 70.6875)scale(0.7)"/>
      </g>
     </g>
    </g>
    <g id="ytick_3">
     <g id="line2d_3">
      <path d="M 54 132.598143 
L 388.8 132.598143 
" clip-path="url(#p9c4252f0fb)" style="fill: none; stroke: #cccccc; stroke-width: 0.8; stroke-linecap: round"/>
     </g>
     <g id="text_5">
      <!-- $\mathdefault{10^{0}}$ -->
      <g style="fill: #262626" transform="translate(31.3 137.754393)scale(0.1 -0.1)">
       <use xlink:href="#ArialMT-31" transform="translate(0 0.99375)"/>
       <use xlink:href="#ArialMT-30" transform="translate(55.615234 0.99375)"/>
       <use xlink:href="#ArialMT-30" transform="translate(112.972813 70.6875)scale(0.7)"/>
      </g>
     </g>
    </g>
    <g id="ytick_4">
     <g id="line2d_4">
      <path d="M 54 72.756862 
L 388.8 72.756862 
" clip-path="url(#p9c4252f0fb)" style="fill: none; stroke: #cccccc; stroke-width: 0.8; stroke-linecap: round"/>
     </g>
     <g id="text_6">
      <!-- $\mathdefault{10^{1}}$ -->
      <g style="fill: #262626" transform="translate(31.3 77.913112)scale(0.1 -0.1)">
       <use xlink:href="#ArialMT-31" transform="translate(0 0.99375)"/>
       <use xlink:href="#ArialMT-30" transform="translate(55.615234 0.99375)"/>
       <use xlink:href="#ArialMT-31" transform="translate(112.972813 70.6875)scale(0.7)"/>
      </g>
     </g>
    </g>
    <g id="ytick_5"/>
    <g id="ytick_6"/>
    <g id="ytick_7"/>
    <g id="ytick_8"/>
    <g id="ytick_9"/>
    <g id="ytick_10"/>
    <g id="ytick_11"/>
    <g id="ytick_12"/>
    <g id="ytick_13"/>
    <g id="ytick_14"/>
    <g id="ytick_15"/>
    <g id="ytick_16"/>
    <g id="ytick_17"/>
    <g id="ytick_18"/>
    <g id="ytick_19"/>
    <g id="ytick_20"/>
    <g id="ytick_21"/>
    <g id="ytick_22"/>
    <g id="ytick_23"/>
    <g id="ytick_24"/>
    <g id="ytick_25"/>
    <g id="ytick_26"/>
    <g id="ytick_27"/>
    <g id="ytick_28"/>
    <g id="ytick_29"/>
    <g id="ytick_30"/>
    <g id="ytick_31"/>
    <g id="ytick_32"/>
    <g id="text_7">
     <!-- Fixation distance [fields] -->
     <g style="fill: #262626" transform="translate(21.2125 198.79625)rotate(-90)scale(0.1 -0.1)">
      <defs>
       <path id="ArialMT-46" d="M 525 0 
L 525 4581 
L 3616 4581 
L 3616 4041 
L 1131 4041 
L 1131 2622 
L 3281 2622 
L 3281 2081 
L 1131 2081 
L 1131 0 
L 525 0 
z
" transform="scale(0.015625)"/>
       <path id="ArialMT-78" d="M 47 0 
L 1259 1725 
L 138 3319 
L 841 3319 
L 1350 2541 
Q 1494 2319 1581 2169 
Q 1719 2375 1834 2534 
L 2394 3319 
L 3066 3319 
L 1919 1756 
L 3153 0 
L 2463 0 
L 1781 1031 
L 1600 1309 
L 728 0 
L 47 0 
z
" transform="scale(0.015625)"/>
       <path id="ArialMT-61" d="M 2588 409 
Q 2275 144 1986 34 
Q 1697 -75 1366 -75 
Q 819 -75 525 192 
Q 231 459 231 875 
Q 231 1119 342 1320 
Q 453 1522 633 1644 
Q 813 1766 1038 1828 
Q 1203 1872 1538 1913 
Q 2219 1994 2541 2106 
Q 2544 2222 2544 2253 
Q 2544 2597 2384 2738 
Q 2169 2928 1744 2928 
Q 1347 2928 1158 2789 
Q 969 2650 878 2297 
L 328 2372 
Q 403 2725 575 2942 
Q 747 3159 1072 3276 
Q 1397 3394 1825 3394 
Q 2250 3394 2515 3294 
Q 2781 3194 2906 3042 
Q 3031 2891 3081 2659 
Q 3109 2516 3109 2141 
L 3109 1391 
Q 3109 606 3145 398 
Q 3181 191 3288 0 
L 2700 0 
Q 2613 175 2588 409 
z
M 2541 1666 
Q 2234 1541 1622 1453 
Q 1275 1403 1131 1340 
Q 988 1278 909 1158 
Q 831 1038 831 891 
Q 831 666 1001 516 
Q 1172 366 1500 366 
Q 1825 366 2078 508 
Q 2331 650 2450 897 
Q 2541 1088 2541 1459 
L 2541 1666 
z
" transform="scale(0.015625)"/>
       <path id="ArialMT-6f" d="M 213 1659 
Q 213 2581 725 3025 
Q 1153 3394 1769 3394 
Q 2453 3394 2887 2945 
Q 3322 2497 3322 1706 
Q 3322 1066 3130 698 
Q 2938 331 2570 128 
Q 2203 -75 1769 -75 
Q 1072 -75 642 372 
Q 213 819 213 1659 
z
M 791 1659 
Q 791 1022 1069 705 
Q 1347 388 1769 388 
Q 2188 388 2466 706 
Q 2744 1025 2744 1678 
Q 2744 2294 2464 2611 
Q 2184 2928 1769 2928 
Q 1347 2928 1069 2612 
Q 791 2297 791 1659 
z
" transform="scale(0.015625)"/>
       <path id="ArialMT-6e" d="M 422 0 
L 422 3319 
L 928 3319 
L 928 2847 
Q 1294 3394 1984 3394 
Q 2284 3394 2536 3286 
Q 2788 3178 2913 3003 
Q 3038 2828 3088 2588 
Q 3119 2431 3119 2041 
L 3119 0 
L 2556 0 
L 2556 2019 
Q 2556 2363 2490 2533 
Q 2425 2703 2258 2804 
Q 2091 2906 1866 2906 
Q 1506 2906 1245 2678 
Q 984 2450 984 1813 
L 984 0 
L 422 0 
z
" transform="scale(0.015625)"/>
       <path id="ArialMT-20" transform="scale(0.015625)"/>
       <path id="ArialMT-64" d="M 2575 0 
L 2575 419 
Q 2259 -75 1647 -75 
Q 1250 -75 917 144 
Q 584 363 401 755 
Q 219 1147 219 1656 
Q 219 2153 384 2558 
Q 550 2963 881 3178 
Q 1213 3394 1622 3394 
Q 1922 3394 2156 3267 
Q 2391 3141 2538 2938 
L 2538 4581 
L 3097 4581 
L 3097 0 
L 2575 0 
z
M 797 1656 
Q 797 1019 1065 703 
Q 1334 388 1700 388 
Q 2069 388 2326 689 
Q 2584 991 2584 1609 
Q 2584 2291 2321 2609 
Q 2059 2928 1675 2928 
Q 1300 2928 1048 2622 
Q 797 2316 797 1656 
z
" transform="scale(0.015625)"/>
       <path id="ArialMT-63" d="M 2588 1216 
L 3141 1144 
Q 3050 572 2676 248 
Q 2303 -75 1759 -75 
Q 1078 -75 664 370 
Q 250 816 250 1647 
Q 250 2184 428 2587 
Q 606 2991 970 3192 
Q 1334 3394 1763 3394 
Q 2303 3394 2647 3120 
Q 2991 2847 3088 2344 
L 2541 2259 
Q 2463 2594 2264 2762 
Q 2066 2931 1784 2931 
Q 1359 2931 1093 2626 
Q 828 2322 828 1663 
Q 828 994 1084 691 
Q 1341 388 1753 388 
Q 2084 388 2306 591 
Q 2528 794 2588 1216 
z
" transform="scale(0.015625)"/>
       <path id="ArialMT-5b" d="M 434 -1272 
L 434 4581 
L 1675 4581 
L 1675 4116 
L 997 4116 
L 997 -806 
L 1675 -806 
L 1675 -1272 
L 434 -1272 
z
" transform="scale(0.015625)"/>
       <path id="ArialMT-66" d="M 556 0 
L 556 2881 
L 59 2881 
L 59 3319 
L 556 3319 
L 556 3672 
Q 556 4006 616 4169 
Q 697 4388 901 4523 
Q 1106 4659 1475 4659 
Q 1713 4659 2000 4603 
L 1916 4113 
Q 1741 4144 1584 4144 
Q 1328 4144 1222 4034 
Q 1116 3925 1116 3625 
L 1116 3319 
L 1763 3319 
L 1763 2881 
L 1116 2881 
L 1116 0 
L 556 0 
z
" transform="scale(0.015625)"/>
       <path id="ArialMT-6c" d="M 409 0 
L 409 4581 
L 972 4581 
L 972 0 
L 409 0 
z
" transform="scale(0.015625)"/>
       <path id="ArialMT-5d" d="M 1363 -1272 
L 122 -1272 
L 122 -806 
L 800 -806 
L 800 4116 
L 122 4116 
L 122 4581 
L 1363 4581 
L 1363 -1272 
z
" transform="scale(0.015625)"/>
      </defs>
      <use xlink:href="#ArialMT-46"/>
      <use xlink:href="#ArialMT-69" x="61.083984"/>
      <use xlink:href="#ArialMT-78" x="83.300781"/>
      <use xlink:href="#ArialMT-61" x="133.300781"/>
      <use xlink:href="#ArialMT-74" x="188.916016"/>
      <use xlink:href="#ArialMT-69" x="216.699219"/>
      <use xlink:href="#ArialMT-6f" x="238.916016"/>
      <use xlink:href="#ArialMT-6e" x="294.53125"/>
      <use xlink:href="#ArialMT-20" x="350.146484"/>
      <use xlink:href="#ArialMT-64" x="377.929688"/>
      <use xlink:href="#ArialMT-69" x="433.544922"/>
      <use xlink:href="#ArialMT-73" x="455.761719"/>
      <use xlink:href="#ArialMT-74" x="505.761719"/>
      <use xlink:href="#ArialMT-61" x="533.544922"/>
      <use xlink:href="#ArialMT-6e" x="589.160156"/>
      <use xlink:href="#ArialMT-63" x="644.775391"/>
      <use xlink:href="#ArialMT-65" x="694.775391"/>
      <use xlink:href="#ArialMT-20" x="750.390625"/>
      <use xlink:href="#ArialMT-5b" x="778.173828"/>
      <use xlink:href="#ArialMT-66" x="805.957031"/>
      <use xlink:href="#ArialMT-69" x="833.740234"/>
      <use xlink:href="#ArialMT-65" x="855.957031"/>
      <use xlink:href="#ArialMT-6c" x="911.572266"/>
      <use xlink:href="#ArialMT-64" x="933.789062"/>
      <use xlink:href="#ArialMT-73" x="989.404297"/>
      <use xlink:href="#ArialMT-5d" x="1039.404297"/>
     </g>
    </g>
   </g>
   <g id="PolyCollection_1">
    <path d="M 139.262087 59973.878499 
L 136.137913 59973.878499 
L 130.518555 59973.878499 
L 121.060918 59973.878499 
L 113.418669 182.568368 
L 106.732432 161.739484 
L 98.160509 150.327573 
L 87.756232 142.424677 
L 75.17314 136.372935 
L 70.74 131.467632 
L 80.372219 127.342821 
L 90.277314 123.783891 
L 92.948315 120.654141 
L 88.451877 117.861112 
L 82.654532 115.339335 
L 88.840062 113.040757 
L 102.76285 110.92906 
L 111.195334 108.976128 
L 113.744866 107.159748 
L 113.04179 105.462066 
L 114.209154 103.868515 
L 120.671502 102.367057 
L 126.764921 100.947625 
L 129.702145 99.601721 
L 130.724115 98.322099 
L 130.95669 97.102538 
L 131.954881 95.93765 
L 133.718739 94.822743 
L 135.155664 93.753704 
L 135.945715 92.726908 
L 135.954868 91.739143 
L 135.829803 90.78755 
L 136.214095 89.869572 
L 136.727051 88.982916 
L 137.049209 88.125515 
L 137.142695 87.2955 
L 137.046785 86.491174 
L 136.912835 85.710997 
L 136.797676 84.953559 
L 136.90916 84.217573 
L 137.248523 83.501857 
L 137.360704 82.805324 
L 137.288114 82.126973 
L 137.347009 81.465878 
L 137.418491 80.821184 
L 137.448686 80.192097 
L 137.484391 79.577878 
L 137.40071 78.977841 
L 137.362813 78.391345 
L 137.492903 77.817794 
L 137.591859 77.256628 
L 137.616719 76.707323 
L 137.5795 76.169389 
L 137.524454 75.642363 
L 137.543547 75.125813 
L 137.5954 74.619331 
L 137.644141 74.12253 
L 137.67564 73.635048 
L 137.669817 73.156543 
L 137.646672 72.686688 
L 137.626072 72.225177 
L 137.629586 71.77172 
L 137.657395 71.326038 
L 137.648991 70.887871 
L 137.605513 70.456969 
L 137.61245 70.033096 
L 137.662452 69.616024 
L 137.675814 69.205541 
L 137.631061 68.80144 
L 137.56594 68.403527 
L 137.559866 68.011614 
L 137.624605 67.625523 
L 137.680371 67.245085 
L 137.695498 66.870135 
L 137.687562 66.500518 
L 137.670371 66.136085 
L 137.669146 65.776691 
L 137.686086 65.422199 
L 137.697283 65.072477 
L 137.69977 64.7274 
L 137.699992 64.386844 
L 137.7 64.050693 
L 137.699996 63.718835 
L 137.699884 63.391161 
L 137.698341 63.067566 
L 137.689703 62.747952 
L 137.672328 62.432221 
L 137.667798 62.120279 
L 137.683772 61.812037 
L 137.696459 61.507408 
L 137.699665 61.206309 
L 137.699986 60.908658 
L 137.7 60.614378 
L 137.699998 60.323393 
L 137.699924 60.035629 
L 137.698777 59.751017 
L 137.691519 59.469489 
L 137.674532 59.190977 
L 137.666883 58.915418 
L 137.681351 58.642751 
L 137.695453 58.372915 
L 137.704547 58.372915 
L 137.704547 58.372915 
L 137.718649 58.642751 
L 137.733117 58.915418 
L 137.725468 59.190977 
L 137.708481 59.469489 
L 137.701223 59.751017 
L 137.700076 60.035629 
L 137.700002 60.323393 
L 137.7 60.614378 
L 137.700014 60.908658 
L 137.700335 61.206309 
L 137.703541 61.507408 
L 137.716228 61.812037 
L 137.732202 62.120279 
L 137.727672 62.432221 
L 137.710297 62.747952 
L 137.701659 63.067566 
L 137.700116 63.391161 
L 137.700004 63.718835 
L 137.7 64.050693 
L 137.700008 64.386844 
L 137.70023 64.7274 
L 137.702717 65.072477 
L 137.713914 65.422199 
L 137.730854 65.776691 
L 137.729629 66.136085 
L 137.712438 66.500518 
L 137.704502 66.870135 
L 137.719629 67.245085 
L 137.775395 67.625523 
L 137.840134 68.011614 
L 137.83406 68.403527 
L 137.768939 68.80144 
L 137.724186 69.205541 
L 137.737548 69.616024 
L 137.78755 70.033096 
L 137.794487 70.456969 
L 137.751009 70.887871 
L 137.742605 71.326038 
L 137.770414 71.77172 
L 137.773928 72.225177 
L 137.753328 72.686688 
L 137.730183 73.156543 
L 137.72436 73.635048 
L 137.755859 74.12253 
L 137.8046 74.619331 
L 137.856453 75.125813 
L 137.875546 75.642363 
L 137.8205 76.169389 
L 137.783281 76.707323 
L 137.808141 77.256628 
L 137.907097 77.817794 
L 138.037187 78.391345 
L 137.99929 78.977841 
L 137.915609 79.577878 
L 137.951314 80.192097 
L 137.981509 80.821184 
L 138.052991 81.465878 
L 138.111886 82.126973 
L 138.039296 82.805324 
L 138.151477 83.501857 
L 138.49084 84.217573 
L 138.602324 84.953559 
L 138.487165 85.710997 
L 138.353215 86.491174 
L 138.257305 87.2955 
L 138.350791 88.125515 
L 138.672949 88.982916 
L 139.185905 89.869572 
L 139.570197 90.78755 
L 139.445132 91.739143 
L 139.454285 92.726908 
L 140.244336 93.753704 
L 141.681261 94.822743 
L 143.445119 95.93765 
L 144.44331 97.102538 
L 144.675885 98.322099 
L 145.697855 99.601721 
L 148.635079 100.947625 
L 154.728498 102.367057 
L 161.190846 103.868515 
L 162.35821 105.462066 
L 161.655134 107.159748 
L 164.204666 108.976128 
L 172.63715 110.92906 
L 186.559938 113.040757 
L 192.745468 115.339335 
L 186.948123 117.861112 
L 182.451685 120.654141 
L 185.122686 123.783891 
L 195.027781 127.342821 
L 204.66 131.467632 
L 200.22686 136.372935 
L 187.643768 142.424677 
L 177.239491 150.327573 
L 168.667568 161.739484 
L 161.981331 182.568368 
L 154.339082 59973.878499 
L 144.881445 59973.878499 
L 139.262087 59973.878499 
z
" clip-path="url(#p9c4252f0fb)" style="fill: #6b77b0; stroke: #4b4b4b; stroke-width: 1.5"/>
   </g>
   <g id="PolyCollection_2">
    <path d="M 305.794656 59973.878499 
L 304.405344 59973.878499 
L 301.26484 59973.878499 
L 295.274268 246.24 
L 288.354585 162.485333 
L 279.061285 144.994316 
L 269.567599 134.633489 
L 266.490099 127.245798 
L 267.40622 121.500006 
L 268.299032 116.797378 
L 271.605634 112.816712 
L 276.017772 109.365552 
L 278.814487 106.319426 
L 280.677496 103.593171 
L 282.400747 101.125946 
L 284.439582 98.872771 
L 287.723278 96.799453 
L 290.882417 94.879388 
L 293.233952 93.091472 
L 295.075155 91.418679 
L 296.685662 89.847077 
L 297.986784 88.365118 
L 298.730458 86.963125 
L 299.338874 85.63291 
L 299.882221 84.367478 
L 300.544743 83.160811 
L 301.674588 82.007693 
L 302.421871 80.903573 
L 302.590527 79.844456 
L 302.812196 78.826815 
L 303.138173 77.847526 
L 303.450563 76.903801 
L 303.670444 75.993148 
L 303.907909 75.113328 
L 304.028142 74.26232 
L 304.028762 73.438297 
L 304.022979 72.6396 
L 303.980305 71.86472 
L 304.105205 71.112275 
L 304.378808 70.381005 
L 304.604817 69.669749 
L 304.733556 68.977441 
L 304.756141 68.303098 
L 304.734774 67.645811 
L 304.783321 67.004738 
L 304.827383 66.379098 
L 304.843003 65.768167 
L 304.857953 65.171268 
L 304.848712 64.587771 
L 304.868376 64.017088 
L 304.949671 63.458667 
L 304.972334 62.911993 
L 304.920275 62.376582 
L 304.926876 61.851979 
L 304.94434 61.337756 
L 304.885435 60.833511 
L 304.881064 60.338863 
L 304.922412 59.853455 
L 304.937367 59.376947 
L 304.984607 58.909019 
L 305.035278 58.449367 
L 305.062998 57.997703 
L 305.055817 57.553755 
L 305.046181 57.117264 
L 305.055271 56.687983 
L 305.066193 56.265677 
L 305.08283 55.850125 
L 305.088494 55.441112 
L 305.086305 55.038437 
L 305.092299 54.641906 
L 305.097548 54.251334 
L 305.094092 53.866545 
L 305.087077 53.487371 
L 305.089854 53.113649 
L 305.097192 52.745225 
L 305.099726 52.381951 
L 305.099991 52.023685 
L 305.099998 51.670291 
L 305.099919 51.321638 
L 305.098742 50.9776 
L 305.093112 50.638057 
L 305.086704 50.302894 
L 305.090955 49.971997 
L 305.097831 49.645261 
L 305.099817 49.322582 
L 305.099995 49.00386 
L 305.1 48.689 
L 305.1 48.377908 
L 305.1 48.070496 
L 305.1 47.766679 
L 305.1 47.466372 
L 305.1 47.169495 
L 305.1 46.875971 
L 305.1 46.585726 
L 305.099999 46.298686 
L 305.099946 46.014782 
L 305.099237 45.733946 
L 305.09619 45.456113 
L 305.093299 45.181218 
L 305.095846 44.9092 
L 305.099092 44.64 
L 305.100908 44.64 
L 305.100908 44.64 
L 305.104154 44.9092 
L 305.106701 45.181218 
L 305.10381 45.456113 
L 305.100763 45.733946 
L 305.100054 46.014782 
L 305.100001 46.298686 
L 305.1 46.585726 
L 305.1 46.875971 
L 305.1 47.169495 
L 305.1 47.466372 
L 305.1 47.766679 
L 305.1 48.070496 
L 305.1 48.377908 
L 305.1 48.689 
L 305.100005 49.00386 
L 305.100183 49.322582 
L 305.102169 49.645261 
L 305.109045 49.971997 
L 305.113296 50.302894 
L 305.106888 50.638057 
L 305.101258 50.9776 
L 305.100081 51.321638 
L 305.100002 51.670291 
L 305.100009 52.023685 
L 305.100274 52.381951 
L 305.102808 52.745225 
L 305.110146 53.113649 
L 305.112923 53.487371 
L 305.105908 53.866545 
L 305.102452 54.251334 
L 305.107701 54.641906 
L 305.113695 55.038437 
L 305.111506 55.441112 
L 305.11717 55.850125 
L 305.133807 56.265677 
L 305.144729 56.687983 
L 305.153819 57.117264 
L 305.144183 57.553755 
L 305.137002 57.997703 
L 305.164722 58.449367 
L 305.215393 58.909019 
L 305.262633 59.376947 
L 305.277588 59.853455 
L 305.318936 60.338863 
L 305.314565 60.833511 
L 305.25566 61.337756 
L 305.273124 61.851979 
L 305.279725 62.376582 
L 305.227666 62.911993 
L 305.250329 63.458667 
L 305.331624 64.017088 
L 305.351288 64.587771 
L 305.342047 65.171268 
L 305.356997 65.768167 
L 305.372617 66.379098 
L 305.416679 67.004738 
L 305.465226 67.645811 
L 305.443859 68.303098 
L 305.466444 68.977441 
L 305.595183 69.669749 
L 305.821192 70.381005 
L 306.094795 71.112275 
L 306.219695 71.86472 
L 306.177021 72.6396 
L 306.171238 73.438297 
L 306.171858 74.26232 
L 306.292091 75.113328 
L 306.529556 75.993148 
L 306.749437 76.903801 
L 307.061827 77.847526 
L 307.387804 78.826815 
L 307.609473 79.844456 
L 307.778129 80.903573 
L 308.525412 82.007693 
L 309.655257 83.160811 
L 310.317779 84.367478 
L 310.861126 85.63291 
L 311.469542 86.963125 
L 312.213216 88.365118 
L 313.514338 89.847077 
L 315.124845 91.418679 
L 316.966048 93.091472 
L 319.317583 94.879388 
L 322.476722 96.799453 
L 325.760418 98.872771 
L 327.799253 101.125946 
L 329.522504 103.593171 
L 331.385513 106.319426 
L 334.182228 109.365552 
L 338.594366 112.816712 
L 341.900968 116.797378 
L 342.79378 121.500006 
L 343.709901 127.245798 
L 340.632401 134.633489 
L 331.138715 144.994316 
L 321.845415 162.485333 
L 314.925732 246.24 
L 308.93516 59973.878499 
L 305.794656 59973.878499 
z
" clip-path="url(#p9c4252f0fb)" style="fill: #a15858; stroke: #4b4b4b; stroke-width: 1.5"/>
   </g>
   <g id="patch_3">
    <path d="M 120.96 134.206206 
L 154.44 134.206206 
L 154.44 111.929906 
L 120.96 111.929906 
L 120.96 134.206206 
z
" clip-path="url(#p9c4252f0fb)" style="fill: #4961d2; fill-opacity: 0.55; stroke: #000000; stroke-width: 1.5; stroke-linejoin: miter"/>
   </g>
   <g id="line2d_5">
    <path d="M 137.7 134.206206 
L 137.7 289 
" clip-path="url(#p9c4252f0fb)" style="fill: none; stroke: #000000; stroke-width: 1.5; stroke-linecap: round"/>
   </g>
   <g id="line2d_6">
    <path d="M 137.7 111.929906 
L 137.7 95.986061 
" clip-path="url(#p9c4252f0fb)" style="fill: none; stroke: #000000; stroke-width: 1.5; stroke-linecap: round"/>
   </g>
   <g id="line2d_7">
    <path clip-path="url(#p9c4252f0fb)" style="fill: none; stroke: #000000; stroke-width: 1.5; stroke-linecap: round"/>
   </g>
   <g id="line2d_8">
    <path d="M 129.33 95.986061 
L 146.07 95.986061 
" clip-path="url(#p9c4252f0fb)" style="fill: none; stroke: #000000; stroke-width: 1.5; stroke-linecap: round"/>
   </g>
   <g id="patch_4">
    <path d="M 288.36 126.066798 
L 321.84 126.066798 
L 321.84 98.197921 
L 288.36 98.197921 
L 288.36 126.066798 
z
" clip-path="url(#p9c4252f0fb)" style="fill: #c53334; fill-opacity: 0.55; stroke: #000000; stroke-width: 1.5; stroke-linejoin: miter"/>
   </g>
   <g id="line2d_9">
    <path d="M 305.1 126.066798 
L 305.1 289 
" clip-path="url(#p9c4252f0fb)" style="fill: none; stroke: #000000; stroke-width: 1.5; stroke-linecap: round"/>
   </g>
   <g id="line2d_10">
    <path d="M 305.1 98.197921 
L 305.1 80.380602 
" clip-path="url(#p9c4252f0fb)" style="fill: none; stroke: #000000; stroke-width: 1.5; stroke-linecap: round"/>
   </g>
   <g id="line2d_11">
    <path clip-path="url(#p9c4252f0fb)" style="fill: none; stroke: #000000; stroke-width: 1.5; stroke-linecap: round"/>
   </g>
   <g id="line2d_12">
    <path d="M 296.73 80.380602 
L 313.47 80.380602 
" clip-path="url(#p9c4252f0fb)" style="fill: none; stroke: #000000; stroke-width: 1.5; stroke-linecap: round"/>
   </g>
   <g id="line2d_13">
    <path d="M 120.96 121.906768 
L 154.44 121.906768 
" clip-path="url(#p9c4252f0fb)" style="fill: none; stroke: #000000; stroke-width: 1.5; stroke-linecap: round"/>
   </g>
   <g id="line2d_14">
    <path d="M 120.96 118.916284 
L 154.44 118.916284 
" clip-path="url(#p9c4252f0fb)" style="fill: none; stroke-dasharray: 3.7,1.6; stroke-dashoffset: 0; stroke: #000000"/>
   </g>
   <g id="line2d_15">
    <path d="M 288.36 110.990217 
L 321.84 110.990217 
" clip-path="url(#p9c4252f0fb)" style="fill: none; stroke: #000000; stroke-width: 1.5; stroke-linecap: round"/>
   </g>
   <g id="line2d_16">
    <path d="M 288.36 105.1074 
L 321.84 105.1074 
" clip-path="url(#p9c4252f0fb)" style="fill: none; stroke-dasharray: 3.7,1.6; stroke-dashoffset: 0; stroke: #000000"/>
   </g>
   <g id="patch_5">
    <path d="M 54 256.32 
L 54 34.56 
" style="fill: none; stroke: #cccccc; stroke-width: 0.8; stroke-linejoin: miter; stroke-linecap: square"/>
   </g>
   <g id="patch_6">
    <path d="M 388.8 256.32 
L 388.8 34.56 
" style="fill: none; stroke: #cccccc; stroke-width: 0.8; stroke-linejoin: miter; stroke-linecap: square"/>
   </g>
   <g id="patch_7">
    <path d="M 54 256.32 
L 388.8 256.32 
" style="fill: none; stroke: #cccccc; stroke-width: 0.8; stroke-linejoin: miter; stroke-linecap: square"/>
   </g>
   <g id="patch_8">
    <path d="M 54 34.56 
L 388.8 34.56 
" style="fill: none; stroke: #cccccc; stroke-width: 0.8; stroke-linejoin: miter; stroke-linecap: square"/>
   </g>
  </g>
 </g>
 <defs>
  <clipPath id="p9c4252f0fb">
   <rect x="54" y="34.56" width="334.8" height="221.76"/>
  </clipPath>
 </defs>
</svg>
